<svg width="144" height="139" viewBox="0 0 144 139" fill="none" xmlns="http://www.w3.org/2000/svg">
<rect width="144" height="139" rx="25" fill="url(#paint0_linear_839_1817)"/>
<path d="M55.791 46.8383C55.791 46.8383 58.3664 38.5643 51.9012 34.23C51.2351 33.783 41.556 44.5954 42.3687 54.6523C42.3687 54.6537 50.5075 48.612 55.791 46.8383Z" fill="white"/>
<path d="M101.482 54.6538C102.295 44.5967 92.616 33.7845 91.9496 34.2314C85.4844 38.5656 88.0598 46.8395 88.0598 46.8395C93.3434 48.6121 101.482 54.6538 101.482 54.6538Z" fill="white"/>
<path d="M112.924 54.8906C113.732 55.6833 114.502 56.5015 115.223 57.3325L110.556 61.1374C109.7 60.1517 108.761 59.1845 107.764 58.2638L106.781 57.356L106.819 56.0395C106.893 53.5151 106.656 48.458 104.233 42.9424C101.455 36.6155 96.6478 31.647 89.9318 28.1518C89.2702 28.8304 88.4347 29.7951 87.6087 31.0428C85.2401 34.6195 84.0393 38.7408 84.0393 43.2915V46.2466H59.8094V43.2915C59.8094 38.6452 58.6149 34.4996 56.2581 30.9684C55.4359 29.7358 54.6051 28.7931 53.9483 28.1355C47.2155 31.6317 42.3998 36.605 39.6169 42.9412C37.1953 48.458 36.9564 53.5149 37.0309 56.0383L37.0693 57.3546L36.086 58.2624C35.0883 59.1829 34.1483 60.1503 33.2935 61.136L28.6274 57.3325C29.349 56.5013 30.1196 55.6831 30.9278 54.8906C31.0191 48.0912 33.336 30.9998 53.1325 21.9181L54.7496 21.1767L56.206 22.1833C56.5733 22.4381 64.6149 28.1365 65.7697 40.3363H78.0865C79.2546 28.3822 87.229 22.4848 87.5939 22.2205L89.0634 21.1592L90.7192 21.9193C110.517 30.9998 112.833 48.0912 112.924 54.8906Z" fill="white"/>
<path d="M58.7361 75.6562C59.8332 76.9402 61.7962 77.1187 63.1206 76.0551C64.445 74.9915 64.6292 73.0886 63.5321 71.8046C60.7117 68.5046 56.9112 66.687 52.8304 66.687C48.7495 66.687 44.949 68.5046 42.1289 71.8048C41.0318 73.0888 41.2159 74.9917 42.5403 76.0553C43.8647 77.1189 45.8277 76.9404 46.9248 75.6564C48.5403 73.7655 50.6376 72.7243 52.8304 72.7243C55.0231 72.7243 57.1202 73.7655 58.7361 75.6562Z" fill="white"/>
<path d="M100.484 76.0541C101.808 74.9905 101.993 73.0876 100.895 71.8037C98.0754 68.5037 94.2748 66.686 90.194 66.686C86.1132 66.686 82.3126 68.5037 79.4925 71.8039C78.3954 73.0878 78.5795 74.9907 79.904 76.0543C81.2284 77.1179 83.1914 76.9394 84.2885 75.6555C85.9039 73.7646 88.0012 72.7233 90.194 72.7233C92.3868 72.7233 94.4841 73.7646 96.0997 75.6552C97.1969 76.9392 99.1598 77.1177 100.484 76.0541Z" fill="white"/>
<path d="M32.5484 102.013C50.8818 125.41 98.1567 120.266 111.301 102.013" stroke="white" stroke-width="5" stroke-linecap="square"/>
<path d="M34.1966 72.8787C33.9853 72.8795 33.7748 72.8542 33.5698 72.8035L12.936 67.8028C12.0232 67.6038 11.293 66.9407 11.0283 66.0709C10.7636 65.2007 11.0056 64.2602 11.6609 63.6124C12.3161 62.965 13.2818 62.7122 14.1842 62.9521L34.818 67.9529C36.0802 68.2596 36.9092 69.4296 36.751 70.6819C36.5933 71.9342 35.4979 72.8759 34.1966 72.8787Z" fill="white"/>
<path d="M10.9825 85.38C9.66831 85.3777 8.56599 84.418 8.42328 83.1514C8.28057 81.8849 9.14285 80.7169 10.4255 80.4394L33.6383 75.4387C34.5448 75.2263 35.4992 75.5049 36.1338 76.1674C36.7687 76.8299 36.9849 77.773 36.6995 78.634C36.414 79.4949 35.6715 80.1393 34.7575 80.3194L11.5448 85.3201C11.3601 85.3597 11.1715 85.3797 10.9825 85.38Z" fill="white"/>
<path d="M21.2982 97.8823C20.1612 97.8837 19.1573 97.163 18.8271 96.1081C18.4969 95.0534 18.9182 93.9132 19.8643 93.3017L35.3396 83.3002C36.1062 82.8045 37.0874 82.7429 37.9138 83.1385C38.7399 83.5343 39.2857 84.3274 39.3451 85.2187C39.4046 86.1102 38.969 86.9648 38.2023 87.4606L22.727 97.462C22.3038 97.7359 21.8068 97.882 21.2982 97.8823Z" fill="white"/>
<path d="M108.994 73.1675C107.655 73.1649 106.528 72.1958 106.366 70.9075C106.203 69.6195 107.056 68.4156 108.354 68.1001L129.581 62.9557C130.509 62.7088 131.503 62.9689 132.177 63.6349C132.851 64.301 133.1 65.2689 132.827 66.164C132.555 67.0592 131.804 67.741 130.865 67.9457L109.639 73.0901C109.428 73.1423 109.211 73.1683 108.994 73.1675Z" fill="white"/>
<path d="M132.875 86.0283C132.681 86.028 132.487 86.0074 132.297 85.9664L108.417 80.822C107.477 80.6367 106.713 79.9738 106.42 79.0881C106.126 78.2024 106.349 77.2323 107.002 76.5507C107.655 75.8692 108.636 75.5825 109.569 75.801L133.448 80.9454C134.768 81.2309 135.655 82.4325 135.508 83.7354C135.361 85.0386 134.227 86.026 132.875 86.0283Z" fill="white"/>
<path d="M122.262 98.8891C121.738 98.8889 121.227 98.7385 120.792 98.457L104.872 88.1682C103.653 87.3799 103.324 85.7826 104.137 84.6005C104.95 83.4184 106.598 83.0997 107.817 83.8881L123.737 94.1769C124.71 94.806 125.144 95.9789 124.804 97.0639C124.464 98.1492 123.431 98.8906 122.262 98.8891Z" fill="white"/>
<path d="M79.4297 88.0755C79.0723 91.9865 75.8744 95.0866 71.8401 95.4331C67.8057 95.0866 64.6079 91.9865 64.2505 88.0755C64.2505 85.0276 67.6488 84.3967 71.8401 84.3967C76.0314 84.3967 79.4297 85.0278 79.4297 88.0755Z" fill="white"/>
<defs>
<linearGradient id="paint0_linear_839_1817" x1="144" y1="0" x2="5.08675" y2="143.91" gradientUnits="userSpaceOnUse">
<stop stop-color="#FFB800"/>
<stop offset="1" stop-color="#FF9900"/>
</linearGradient>
</defs>
</svg>
