<svg width="390" height="390" viewBox="0 0 390 390" fill="none" xmlns="http://www.w3.org/2000/svg">
<path d="M0 297.4C1.93 279.73 11.3 265.23 19.94 250.4C27.25 237.85 34.48 225.25 41.75 212.67C72.2567 159.85 102.76 107.02 133.26 54.18C144.37 34.9 160.37 22.77 182.42 18.47C207.42 13.59 236.88 25.02 250.29 46.65C264.66 69.83 278.01 93.65 291.68 117.25C320.46 166.99 349.203 216.753 377.91 266.54C387.21 282.61 390.65 299.54 386.7 317.91C379.81 349.91 351.62 372.37 317.81 372.48C281.14 372.6 244.48 372.48 207.81 372.48C162.163 372.48 116.52 372.48 70.88 372.48C48.76 372.48 30.22 364.48 15.98 347.32C7.70776 337.343 2.40311 325.244 0.669998 312.4C0.529998 311.4 0.23 310.47 0 309.51V297.4ZM193.54 341.2C234.493 341.2 275.447 341.2 316.4 341.2C328.04 341.2 338.31 337.9 346.4 329.2C358.54 316.2 360.31 298.72 351.05 282.68C318.383 226.013 285.68 169.37 252.94 112.75C243.78 96.9 234.94 80.83 225.2 65.36C217.31 52.87 205.1 47.67 190.41 49.03C176.73 50.3 167.24 57.81 160.48 69.54C128.28 125.46 96.0133 181.337 63.68 237.17C54.15 253.68 44.27 270.01 35.35 286.84C28.68 299.44 30.02 312.33 37.79 324.26C45.56 336.19 57.33 341.19 71.41 341.18C112.137 341.167 152.847 341.173 193.54 341.2V341.2Z" fill="black"/>
<path d="M214 150.4C212.447 177 210.9 203.597 209.36 230.19C209.15 233.84 209.36 237.55 208.72 241.13C208.145 244.593 206.34 247.732 203.635 249.97C200.931 252.207 197.509 253.394 194 253.31C186.78 253.2 180.6 248.41 179.77 241.13C178.65 231.24 178.29 221.25 177.67 211.3C176.41 191.01 175.28 170.72 173.93 150.43C172.8 133.43 187.93 121.43 202.42 128.17C211.8 132.55 214.58 140.72 214 150.4Z" fill="black"/>
<path d="M193.78 306.77C191.171 306.714 188.598 306.144 186.209 305.093C183.82 304.042 181.661 302.531 179.856 300.646C178.051 298.761 176.634 296.539 175.688 294.107C174.742 291.674 174.284 289.079 174.34 286.47C174.396 283.861 174.966 281.288 176.017 278.899C177.068 276.51 178.579 274.351 180.464 272.546C182.349 270.741 184.571 269.324 187.003 268.378C189.436 267.432 192.031 266.974 194.64 267.03C205.64 267.25 214.08 276.43 213.72 287.73C213.568 292.888 211.39 297.779 207.658 301.343C203.926 304.907 198.94 306.856 193.78 306.77V306.77Z" fill="black"/>
</svg>
