<svg width="33" height="35" viewBox="0 0 33 35" fill="none" xmlns="http://www.w3.org/2000/svg">
<path d="M0 31.3135C0.0515625 31.1309 0.0979688 30.947 0.154688 30.7665C0.348643 30.1399 0.721129 29.5925 1.22077 29.1999C1.72041 28.8073 2.32258 28.5888 2.94422 28.5746C3.89941 28.5548 4.85525 28.5684 5.81045 28.5671H6.20877C6.20877 28.3941 6.20426 28.2512 6.20877 28.1083C6.25969 26.7792 6.19781 25.4316 6.38666 24.1244C6.88166 20.6956 8.5684 18.0251 11.2567 16.0567C12.228 15.3463 13.2374 14.6825 14.1481 13.8928C16.239 12.0803 17.3482 9.69624 17.5854 6.85068C17.6175 6.57979 17.5542 6.30586 17.4075 6.08152C17.2367 5.81966 17.1194 5.51678 16.9357 5.26791C16.5064 4.68745 16.5045 4.05093 16.6682 3.38774C17.1198 1.55815 18.219 0.449419 19.9656 0.0615331C20.0153 0.045833 20.0634 0.0252318 20.1094 0L26.0391 0C26.2685 0.179813 26.5205 0.33433 26.7236 0.542858C27.4686 1.31134 28.2002 2.09486 28.9317 2.87906C29.0526 3.01594 29.1997 3.12374 29.3631 3.19521C29.5265 3.26668 29.7025 3.30016 29.8792 3.29339C30.5115 3.28176 31.1444 3.30911 31.7754 3.2845C32.3729 3.26194 32.7905 3.49508 33 4.10494V8.48062C32.978 8.51844 32.9606 8.55911 32.9484 8.60164C32.728 9.99228 32.0274 11.0267 30.8904 11.7419C30.2266 12.1598 29.5644 12.581 28.904 13.0054C28.3645 13.352 27.9901 13.8422 27.8811 14.5061C27.8376 14.7559 27.8657 15.0138 27.9617 15.2465C29.0381 17.4897 29.0406 19.72 27.9507 21.9557C27.8774 22.1048 27.8371 22.2696 27.8328 22.4377C27.8251 24.43 27.8328 26.423 27.8225 28.4153C27.8225 28.643 27.8869 28.7489 28.0842 28.8446C29.0948 29.3383 29.7251 30.1724 29.8463 31.3484C29.9269 32.125 29.8721 32.9168 29.9024 33.701C29.9269 34.3341 29.709 34.7798 29.1328 35H2.64258C2.57232 34.9774 2.50271 34.9508 2.43117 34.9316C1.41797 34.6951 0.685137 34.0756 0.257812 33.0685C0.142441 32.7951 0.0825 32.4915 0 32.2023V31.3135ZM27.9643 32.9366C27.9643 32.59 27.9643 32.2727 27.9643 31.9555C27.9669 31.8642 27.9643 31.7729 27.9565 31.682C27.8921 31.0844 27.486 30.6735 26.9137 30.6202C26.2247 30.5566 25.8953 30.1806 25.8947 29.4422C25.8947 26.9809 25.887 24.5196 25.9037 22.0582C25.9102 21.766 25.9846 21.48 26.1203 21.2255C27.071 19.4691 27.0722 17.7297 26.1203 15.9747C25.9865 15.7314 25.9112 15.4569 25.9011 15.1754C25.8844 13.4586 26.536 12.1152 27.9443 11.2195C28.6159 10.7922 29.2888 10.367 29.9591 9.9369C30.7003 9.46014 31.0698 8.76117 31.0677 7.83999C31.0677 7.22466 31.0677 6.60933 31.0677 5.994V5.34107C30.6442 5.34107 30.2691 5.33492 29.8946 5.34107C28.9736 5.35953 28.2008 5.00879 27.5563 4.31552C26.9118 3.62225 26.2537 2.92555 25.5918 2.24254C25.4889 2.13612 25.3541 2.07129 25.2108 2.05931C23.6747 2.047 22.1388 2.04586 20.6031 2.05589C20.1307 2.05368 19.6718 2.22359 19.3033 2.5372C18.9348 2.85081 18.679 3.28911 18.5786 3.77881C18.5464 3.95131 18.5722 4.13032 18.6514 4.28475C19.2792 5.42516 19.925 6.55395 20.5663 7.68548C20.6134 7.76957 20.6688 7.84888 20.7359 7.95417C20.8242 7.83589 20.8983 7.74086 20.9679 7.64241C21.6189 6.7226 22.2694 5.80234 22.9195 4.88162C23.1638 4.5343 23.4758 4.34287 23.8863 4.4126C24.6482 4.54114 24.9562 5.40534 24.4761 6.09246C23.4983 7.49267 22.509 8.88401 21.5215 10.2767C20.9531 11.078 20.2073 11.0322 19.7169 10.1694C19.5448 9.86648 19.3714 9.56497 19.1761 9.22449C19.1329 9.35439 19.1116 9.41729 19.091 9.48293C18.4568 11.8109 17.2999 13.7998 15.5338 15.334C14.5148 16.2187 13.394 16.9715 12.3112 17.7762C9.79172 19.653 8.3325 22.2039 8.18619 25.4726C8.07662 27.9059 8.14881 30.3481 8.14236 32.7882C8.14837 32.8402 8.16027 32.8911 8.17781 32.94H21.5596C21.2708 31.6786 20.0365 30.6838 18.7062 30.6243C17.9786 30.5922 17.6247 30.2182 17.5963 29.462C17.5854 29.0281 17.4932 28.6008 17.3251 28.205C17.157 27.8092 16.9164 27.4528 16.6173 27.1566C15.9895 26.516 15.2238 26.2568 14.3666 26.2069C13.8059 26.1741 13.4372 25.6969 13.4688 25.1287C13.4991 24.5859 13.9232 24.1777 14.462 24.1716C16.7771 24.1524 18.8964 25.9314 19.3933 28.3278C19.4423 28.5616 19.5415 28.6402 19.7459 28.7236C20.3317 28.9643 20.8989 29.2549 21.4726 29.529C21.5651 29.5808 21.655 29.6376 21.742 29.6993V29.2344C21.742 27.2398 21.742 25.2456 21.742 23.252C21.7381 23.0815 21.7521 22.9111 21.7839 22.744C21.8339 22.5258 21.9507 22.3315 22.1161 22.1914C22.2815 22.0514 22.4861 21.9735 22.6977 21.9702C22.9093 21.9668 23.116 22.0381 23.2853 22.1728C23.4546 22.3076 23.5769 22.4981 23.633 22.7146C23.6666 22.8932 23.6798 23.0755 23.6723 23.2574C23.6723 26.345 23.6723 29.4326 23.6723 32.5202V32.9393L27.9643 32.9366ZM6.1875 32.9544V30.6182C5.12918 30.6182 4.09084 30.612 3.05314 30.6182C2.40861 30.6236 1.94004 31.1179 1.93424 31.7681C1.92844 32.4183 2.41377 32.9455 3.06346 32.9544C3.86783 32.9633 4.67479 32.9544 5.47787 32.9544H6.1875Z" fill="white"/>
</svg>
