<svg width="410" height="410" viewBox="0 0 410 410" fill="none" xmlns="http://www.w3.org/2000/svg">
<g clip-path="url(#clip0_1114_1701)">
<path d="M185.24 409.6C178.36 409.08 171.48 408.567 164.6 408.06C135.75 405.94 107.23 401.89 79.68 392.68C67.04 388.45 54.82 383.23 44.86 373.92C29.92 359.97 30.7299 340.65 46.66 327.69C56.66 319.58 68.13 314.52 80.16 310.51C101.44 303.42 123.41 299.6 145.63 297.02C146.79 296.89 147.93 296.68 149.73 296.4C148.73 294.7 147.95 293.4 147.13 292.11C126.93 260.8 108 228.78 93.87 194.18C85.51 173.7 78.22 152.72 78.2 130.3C78.2 82.86 98.39 45.96 138.13 20.22C162.65 4.33001 189.98 -1.59999 218.94 1.68001C254.62 5.73001 283.74 22.14 305.81 50.53C324.93 75.13 333.54 103.23 332.14 134.29C331.48 148.86 327.73 162.9 323.08 176.65C313.59 204.72 300.15 230.97 285.19 256.44C277.99 268.71 270.28 280.67 262.81 292.78C262.19 293.78 261.62 294.78 260.66 296.45C266.53 297.21 272 297.81 277.43 298.64C302.18 302.42 326.69 307.14 349.37 318.43C358.13 322.79 366.21 328.14 371.63 336.63C379.12 348.36 377.29 362.43 367.31 372.31C357.49 382.02 345.31 387.62 332.6 392.03C304.75 401.66 275.84 405.77 246.6 408.03C239.45 408.58 232.31 409.08 225.16 409.61L185.24 409.6ZM204.94 330.6C206.06 329.19 206.68 328.51 207.19 327.77C221.68 306.6 236.69 285.77 250.51 264.16C269.43 234.57 286.36 203.85 298.05 170.54C302.37 158.23 305.97 145.67 306.54 132.54C307.63 107.38 300.54 84.54 284.6 65.07C260.83 36 229.8 23.17 192.52 27.48C162.83 30.91 139.2 45.68 122.01 70.1C107.7 90.42 101.61 113.21 104.39 138.01C106.31 155.19 112.07 171.36 118.74 187.19C133.47 222.11 152.89 254.45 173.85 285.89C183.79 300.79 194.31 315.32 204.94 330.56V330.6ZM211.94 384.16C221.55 383.6 237.94 382.98 254.2 381.59C277.55 379.59 300.63 375.83 322.91 368.24C331.74 365.24 340.42 361.84 347.58 355.59C351.38 352.28 351.66 350.85 347.67 348.16C341.67 344.1 335.45 340 328.75 337.42C302.2 327.21 274.26 323.49 246.11 321.16C244.82 321.05 242.96 322.28 242.11 323.43C233.55 334.81 225.25 346.37 216.68 357.73C209.68 366.97 200.6 366.94 193.6 357.66C185.12 346.4 176.767 335.043 168.54 323.59C166.98 321.43 165.41 320.73 162.91 321.1C144.91 323.82 126.81 325.94 108.91 329.32C94.5 332 80.11 336 67.6 344.21C57.24 351.01 57.09 352.92 67.74 358.97C77.1303 364.188 87.1022 368.283 97.45 371.17C132.63 381.29 168.85 383.54 212 384.12L211.94 384.16Z" fill="black"/>
<path d="M264.63 128C264.596 143.741 258.342 158.83 247.23 169.979C236.118 181.128 221.05 187.433 205.31 187.52C172.56 187.61 145.53 160.52 145.78 127.82C146.005 112.192 152.377 97.2825 163.516 86.3192C174.655 75.356 189.665 69.222 205.294 69.2457C220.923 69.2693 235.914 75.4488 247.02 86.4457C258.125 97.4426 264.452 112.372 264.63 128V128ZM238.89 128C238.87 121.342 236.878 114.839 233.165 109.312C229.452 103.786 224.185 99.4829 218.028 96.9478C211.871 94.4126 205.102 93.7585 198.574 95.0681C192.046 96.3777 186.052 99.5922 181.349 104.306C176.647 109.019 173.447 115.021 172.153 121.552C170.859 128.083 171.529 134.851 174.078 141.002C176.628 147.152 180.943 152.409 186.479 156.109C192.014 159.809 198.522 161.786 205.18 161.79C214.099 161.714 222.631 158.137 228.936 151.829C235.242 145.522 238.817 136.989 238.89 128.07V128Z" fill="black"/>
<path d="M238.89 128.07C238.866 134.729 236.87 141.231 233.153 146.755C229.436 152.28 224.166 156.58 218.007 159.111C211.849 161.642 205.078 162.291 198.55 160.977C192.023 159.663 186.031 156.444 181.332 151.727C176.633 147.009 173.437 141.005 172.148 134.472C170.859 127.94 171.534 121.172 174.089 115.023C176.644 108.874 180.964 103.62 186.503 99.9247C192.042 96.2293 198.551 94.2581 205.21 94.26C214.139 94.3439 222.677 97.937 228.978 104.263C235.28 110.589 238.84 119.141 238.89 128.07V128.07Z" fill="white"/>
</g>
<defs>
<clipPath id="clip0_1114_1701">
<rect width="409.6" height="409.6" fill="white"/>
</clipPath>
</defs>
</svg>
