<svg width="51" height="38" viewBox="0 0 51 38" fill="none" xmlns="http://www.w3.org/2000/svg">
<path d="M25.498 1.00426H44.7376C47.9465 1.00426 49.9986 3.05956 50 6.27199C50 14.8258 50 23.38 50 31.9347C50 34.3225 48.5806 36.2306 46.3556 36.8221C45.8948 36.9386 45.4211 36.9963 44.9458 36.9939C31.9851 37.002 19.0235 37.002 6.06098 36.9939C3.13108 36.9939 1.00544 34.865 1.00408 31.9319C0.998639 23.31 0.998639 14.6877 1.00408 6.06483C1.00408 3.1318 3.12973 1.00426 6.05827 1.00153C12.5341 0.998808 19.014 0.999715 25.498 1.00426ZM25.498 21.6786L44.1728 4.31073H6.81898L25.498 21.6786ZM7.79335 33.6847H43.2026L28.6551 23.2773C28.6102 23.2913 28.5672 23.311 28.5272 23.3359C27.938 23.8811 27.3528 24.4263 26.7581 24.9619C25.9035 25.7442 25.0761 25.7469 24.2324 24.9687C23.62 24.4058 23.0076 23.8388 22.3748 23.2487L7.79335 33.6847ZM4.281 32.1759L19.9389 20.974C14.716 16.1192 9.53251 11.2971 4.281 6.4151V32.1759ZM46.7095 6.41646L31.0597 20.9726L46.7095 32.1691V6.41646Z" fill="black" stroke="black" stroke-width="0.5"/>
</svg>
