<svg width="49" height="49" viewBox="0 0 49 49" fill="none" xmlns="http://www.w3.org/2000/svg">
<path d="M24.4809 5.17657e-05C37.9954 -0.0275132 48.9923 10.9571 49 24.49C49.0077 38.0229 38.0123 49.0045 24.4978 48.9923C18.0071 48.9911 11.782 46.4145 7.1891 41.8282C2.59617 37.2419 0.0106637 31.0205 0.000116443 24.5299C-0.0412311 11.0261 10.9342 0.0291482 24.4809 5.17657e-05ZM31.5789 19.6217H17.4626C17.0353 21.4962 17.0491 27.8622 17.4779 29.3629H31.582C31.9462 26.126 31.9452 22.8584 31.5789 19.6217ZM30.68 14.6662C30.6956 14.6 30.7012 14.5319 30.6968 14.464C30.0843 11.9862 29.2665 9.57583 27.8071 7.45333C27.2853 6.70054 26.6588 6.02605 25.9465 5.45027C24.9602 4.65394 24.0674 4.68457 23.0598 5.44108C22.4938 5.86512 21.9892 6.36554 21.5605 6.92806C19.876 9.18992 18.9572 11.7994 18.3018 14.5115C18.291 14.5559 18.3293 14.6141 18.3446 14.6646L30.68 14.6662ZM30.8331 34.3292H18.2145C18.5207 35.3369 18.778 36.2925 19.1042 37.222C19.824 39.271 20.6953 41.248 22.2236 42.8468C23.8194 44.516 25.1838 44.5114 26.778 42.8468C28.02 41.5543 28.8331 39.9938 29.4656 38.343C29.9618 37.0597 30.3599 35.7228 30.8301 34.3292H30.8331ZM12.3385 29.3706V19.5865C10.1839 19.5865 8.00469 19.5865 5.82705 19.6064C5.69229 19.6064 5.4825 19.8652 5.44115 20.0368C4.90728 22.1365 4.75735 24.3155 4.99857 26.4686C5.1119 27.4487 5.32629 28.4181 5.49014 29.3782L12.3385 29.3706ZM43.4257 29.3706C43.4708 29.2853 43.5092 29.1968 43.5406 29.1056C44.286 26.1044 44.2959 22.9676 43.5697 19.9617C43.4855 19.611 43.291 19.5758 42.9924 19.5773C41.0016 19.5865 39.0107 19.5773 37.0199 19.585C36.9 19.5895 36.7803 19.6008 36.6616 19.6187V29.3706H43.4257ZM15.5223 7.09345C12.2015 8.80868 9.43895 11.4357 7.55905 14.6662H13.0261C13.8822 12.0812 14.7076 9.57277 15.5223 7.09345ZM35.9633 14.6585H41.4365C39.4457 11.3124 36.7795 8.80707 33.4732 7.09498L35.9633 14.6585ZM41.461 34.2894H40.7856C39.3507 34.2894 37.9143 34.317 36.4794 34.2756C35.9571 34.2603 35.755 34.4119 35.6493 34.9234C35.1789 37.2288 34.4361 39.4702 33.4365 41.6003C33.3921 41.6952 33.3691 41.7993 33.3048 41.9892C36.7049 40.2569 39.5359 37.5843 41.461 34.2894ZM7.59581 34.2894C8.92505 37.0811 13.3646 41.2312 15.6892 41.8836C15.546 41.6099 15.4177 41.3288 15.3048 41.0413C14.6371 38.9938 13.9878 36.9402 13.314 34.8928C13.242 34.6768 13.0629 34.3292 12.9281 34.3262C11.1823 34.2787 9.42735 34.2925 7.59581 34.2925V34.2894Z" fill="black"/>
</svg>
