<svg xmlns="http://www.w3.org/2000/svg" width="512" height="512" viewBox="0 0 512 512">
  <path fill="white" d="M327.9,15.665C431.085,30.971,497.2,194.627,503,286.474c6.42,101.734-25.82,189.2-102.4,207.929-40.378,9.877-81.889-21.317-95.083-43.912-34.05-58.316-41.3-401.855,5.64-429.332C315.614,18.713,321.678,16.133,327.9,15.665Zm-165.8,3.4C211.33,38.98,209.444,99.1,215,146.366c14.182,120.586,69.527,349.5-111.422,349.985-52.727.141-84.671-76.687-92.807-113.279,0.021,0.161-.481-0.228,0,0C-5.143,273.549,47.99,93.827,112.962,41.682,125.454,30.427,150.593,14.408,162.106,19.066Z"/>
</svg>
