<svg width="41" height="33" viewBox="0 0 41 33" fill="none" xmlns="http://www.w3.org/2000/svg">
<path d="M38.0501 11.5201C32.8521 11.7521 24.6501 8.56108 21.8301 4.84508C21.5471 1.99508 21.2331 0.0800781 20.9051 0.0800781C20.5911 0.0800781 20.2921 1.81108 20.0221 4.43108C17.1581 7.88608 7.4741 10.4091 3.1821 10.7071C1.5171 8.39008 0.407098 6.85308 0.0790976 7.03908C-1.0239 7.67808 9.6161 29.5211 19.0581 31.9391C21 32.5 22.2951 31.9341 22.2951 31.9341C31.7361 29.5211 42.0961 10.1551 40.7601 7.03807C40.5791 7.46807 39.5961 9.20908 38.0501 11.5201ZM18.6831 27.1501C12.4131 23.4961 6.7541 15.6851 3.3421 10.9311C8.7851 11.4241 16.6891 9.60407 20.0101 4.52308C19.3681 10.7741 18.8751 21.9651 18.6831 27.1501ZM23.1171 26.9581C22.9301 21.9261 22.4751 11.6581 21.8821 5.37008C23.7591 8.87808 32 13 37.8651 11.7931C34.6841 16.5041 29.2281 23.4041 23.1171 26.9581Z" fill="white"/>
<path d="M16.5 29.5L2 11L6 10.5L12 9.5L17 7.5L20.5 4L21 4.5L25 8L28.5 10L36 12L39 11.5L34.5 19L25.5 29.5L20 30L16.5 29.5Z" fill="white" fill-opacity="0.25"/>
</svg>
