<svg width="25" height="31" viewBox="0 0 25 31" fill="none" xmlns="http://www.w3.org/2000/svg">
<path d="M5.42946 30.4144C5.09341 30.341 4.75172 30.2874 4.42271 30.1882C2.37962 29.5728 1.09811 27.9352 1.00863 25.6998C0.915639 23.3792 1.1587 21.0931 2.00553 18.9201C2.55152 17.5182 3.3441 16.305 4.67352 15.5633C5.47739 15.1119 6.38006 14.8861 7.29291 14.9082C7.58317 14.9141 7.88893 15.0668 8.15383 15.2174C8.57654 15.459 8.97599 15.7601 9.39025 16.0252C11.7992 17.5757 14.2077 17.5737 16.6158 16.0193C16.9504 15.8034 17.2914 15.5956 17.6021 15.3503C18.1777 14.9001 18.8117 14.8436 19.4965 14.9486C21.3642 15.235 22.6837 16.3013 23.5728 18.0028C24.3675 19.5215 24.7247 21.1716 24.8839 22.871C24.9663 23.7456 25.003 24.6242 24.9938 25.5029C24.9635 28.1217 23.2396 30.0707 20.7407 30.3579C20.6782 30.3705 20.6169 30.3889 20.5575 30.4129L5.42946 30.4144ZM12.9974 28.6519V28.6475C15.3779 28.6475 17.7592 28.6688 20.1397 28.6402C22.118 28.6167 23.3326 27.3014 23.3164 25.2422C23.3149 24.4607 23.2749 23.6798 23.1966 22.9025C23.048 21.5072 22.7739 20.1479 22.1229 18.8973C21.4515 17.5997 20.4786 16.7596 19.0132 16.6751C18.8764 16.67 18.741 16.7048 18.6222 16.7757C18.2594 16.996 17.9114 17.2464 17.5542 17.48C14.8925 19.2204 12.1364 19.4407 9.30219 17.9874C8.64135 17.6481 8.03829 17.1892 7.40563 16.7904C7.31264 16.7317 7.20132 16.6597 7.10128 16.6641C6.19175 16.7067 5.37522 17.0048 4.72072 17.6922C4.17754 18.2621 3.79851 18.9458 3.52305 19.689C2.81853 21.5888 2.64593 23.5811 2.69243 25.5896C2.71779 26.6912 3.17291 27.5878 4.10991 28.165C4.73411 28.5491 5.42524 28.6526 6.13751 28.6526L12.9974 28.6519Z" fill="white"/>
<path d="M19.9025 7.91107C19.9144 11.7635 16.85 14.8696 13.0045 14.903C9.21523 14.9356 6.10167 11.8039 6.08202 7.93731C6.07127 7.01421 6.24162 6.0981 6.58325 5.24195C6.92488 4.3858 7.431 3.60659 8.07236 2.94937C8.71371 2.29214 9.47758 1.76994 10.3198 1.41295C11.162 1.05596 12.0659 0.871253 12.9792 0.869519C13.8924 0.867785 14.797 1.04905 15.6405 1.40284C16.4841 1.75664 17.2499 2.27593 17.8937 2.93071C18.5374 3.5855 19.0465 4.36278 19.3913 5.21763C19.7361 6.07247 19.9098 6.98793 19.9025 7.91107V7.91107ZM12.9912 13.2041C14.0255 13.2044 15.0366 12.8947 15.8967 12.3141C16.7568 11.7335 17.4272 10.9081 17.8233 9.94232C18.2193 8.97655 18.3232 7.91374 18.1217 6.88831C17.9202 5.86288 17.4224 4.92088 16.6913 4.18143C15.9601 3.44197 15.0285 2.93828 14.0142 2.73405C12.9998 2.52981 11.9484 2.63421 10.9928 3.03403C10.0371 3.43385 9.22025 4.11114 8.64542 4.98026C8.0706 5.84937 7.76364 6.87128 7.76336 7.91674C7.76123 8.61145 7.89498 9.29974 8.15691 9.94202C8.41885 10.5843 8.8038 11.1679 9.28964 11.6593C9.77548 12.1506 10.3526 12.5401 10.9879 12.8052C11.6231 13.0703 12.304 13.2059 12.9912 13.2041Z" fill="white"/>
</svg>
