<svg width="61" height="61" viewBox="0 0 61 61" fill="none" xmlns="http://www.w3.org/2000/svg">
<circle cx="30.5" cy="30.5" r="30.5" fill="#FFC800"/>
<path d="M36.3537 11.0954C35.8631 11.2268 35.5892 11.33 35.2161 11.5239C33.7504 12.2809 32.5556 13.7979 31.8785 15.7591C31.5865 16.6099 31.436 17.2949 31.3247 18.3083C31.2404 19.0966 31.2314 19.7597 31.2976 20.354C31.5564 22.6467 32.5977 24.4515 34.1266 25.2429C35.0596 25.7308 35.9504 25.7997 36.8021 25.4493C38.7704 24.6455 40.2601 22.825 40.9854 20.3352C41.3315 19.1435 41.4669 17.7391 41.3496 16.5254C41.2623 15.6027 41.2202 15.3181 41.1208 14.9302C40.8259 13.7885 40.1879 12.6906 39.4264 12.0275C38.8155 11.4927 38.2467 11.208 37.5124 11.0673C37.0128 10.9703 36.7991 10.9766 36.3537 11.0954Z" fill="black"/>
<path d="M22.4742 11.2238C21.2764 11.449 20.1298 12.4656 19.4707 13.8826C19.1878 14.4956 19.0403 15.0399 18.926 15.9C18.8507 16.4537 18.8507 17.7549 18.9229 18.3554C19.266 21.1706 20.518 23.4977 22.396 24.802C22.7842 25.071 23.4222 25.3995 23.8526 25.5496C24.1656 25.6591 24.2288 25.6685 24.602 25.6841C24.8909 25.6935 25.0865 25.6841 25.2791 25.6466C26.1519 25.4902 26.9464 25.0054 27.5453 24.2672C28.2646 23.3789 28.7311 22.1903 28.9117 20.7796C28.9598 20.398 28.9598 19.1155 28.9087 18.6839C28.6198 16.1878 27.75 14.1891 26.3445 12.7878C25.6734 12.1184 24.9932 11.6868 24.1506 11.3927C23.5486 11.1832 22.9859 11.1269 22.4742 11.2238Z" fill="black"/>
<path d="M45.3045 22.6404C44.0856 22.8468 43.0052 23.4318 42.0451 24.4045C41.4131 25.0489 40.9135 25.7558 40.4892 26.6097C39.9685 27.6606 39.7308 28.4551 39.5231 29.8502C39.4298 30.4851 39.4298 31.4204 39.5231 31.9552C39.7217 33.075 40.1401 33.9915 40.7691 34.6827C41.3258 35.2958 41.9879 35.6649 42.7343 35.7806C43.2369 35.8588 43.9562 35.765 44.6393 35.5273C47.0711 34.6827 49.0574 31.8207 49.4155 28.6459C49.4396 28.4207 49.4607 28.1767 49.4607 28.1017C49.4607 28.0235 49.4757 27.8452 49.4968 27.7013C49.5269 27.4792 49.5239 27.3729 49.4787 26.9944C49.3704 26.0779 49.2259 25.5431 48.9039 24.8612C48.3742 23.7414 47.4864 22.9469 46.4692 22.6842C46.1532 22.6029 45.6415 22.581 45.3045 22.6404Z" fill="black"/>
<path d="M14.3235 23.4289C14.2753 23.4352 14.1038 23.4696 13.9473 23.504C12.7495 23.7824 11.7653 24.6707 11.3891 25.8218C11.2658 26.2065 11.1574 26.6913 11.1032 27.1136C11.0792 27.32 11.043 27.5953 11.028 27.7235C10.9829 28.0645 10.9919 28.3084 11.0581 28.9184C11.1333 29.5909 11.1815 29.8787 11.3169 30.4135C11.6058 31.5677 12.2108 32.8095 12.9421 33.7604C13.2069 34.1013 13.7697 34.6862 14.0977 34.9615C14.9073 35.634 15.8734 36.1282 16.8425 36.3597C17.2608 36.4598 17.8296 36.4535 18.2359 36.344C19.3554 36.0406 20.3185 35.071 20.7429 33.8198C20.8542 33.4945 20.9716 32.9033 21.0197 32.4248C21.0679 31.9712 21.0438 30.8264 20.9776 30.3822C20.5593 27.6266 18.9582 25.2243 16.698 23.9575C16.1352 23.6447 15.8734 23.5446 15.3798 23.4539C15.1391 23.4133 14.5703 23.3976 14.3235 23.4289Z" fill="black"/>
<path d="M29.8671 31.0735C27.5167 31.3394 25.3618 32.3779 23.6133 34.0794C23.1438 34.5361 22.8759 34.8551 22.3673 35.5589C21.0762 37.3387 20.0379 39.2217 19.3247 41.064C18.9846 41.9492 18.7589 42.7218 18.4128 44.1919C18.2924 44.7049 18.2713 44.8425 18.2563 45.2116C18.2081 46.6316 18.8973 48.0142 20.05 48.7961C20.7392 49.2653 21.3471 49.4249 22.3493 49.3904C23.535 49.3529 24.3145 49.1433 26.7071 48.2175C28.5128 47.52 29.3525 47.2854 30.4239 47.179C31.393 47.0852 31.5314 47.0789 31.9949 47.1133C33.0964 47.2009 34.0173 47.4605 35.6455 48.1487C38.327 49.2778 38.2758 49.2591 38.7754 49.3654C39.4315 49.5062 39.9823 49.5531 40.2712 49.4968C40.3494 49.478 40.5571 49.4436 40.7316 49.4123C41.6887 49.2559 42.5374 48.7555 43.061 48.0423C43.5064 47.4386 43.681 46.7974 43.681 45.8028C43.678 44.6235 43.3379 43.4537 42.4501 41.5645C42.0859 40.7919 41.8933 40.4572 40.9513 38.9714C38.8356 35.634 37.0931 33.6916 34.9834 32.3122C33.8548 31.5771 32.8616 31.2237 31.4773 31.0704C31.1582 31.0329 30.1922 31.036 29.8671 31.0735Z" fill="black"/>
</svg>
