<svg width="219" height="219" viewBox="0 0 219 219" fill="none" xmlns="http://www.w3.org/2000/svg">
<path d="M0 167.002C1.08377 157.079 6.34538 148.937 11.1971 140.609C15.3019 133.562 19.3618 126.487 23.4442 119.422C40.5749 89.7619 57.7037 60.0959 74.8306 30.4242C81.0693 19.5977 90.0539 12.7862 102.436 10.3716C116.474 7.63131 133.017 14.0497 140.547 26.1958C148.617 39.2122 156.113 52.5881 163.79 65.8404C179.951 93.7713 196.091 121.715 212.211 149.672C217.433 158.696 219.365 168.203 217.147 178.519C213.278 196.488 197.448 209.1 178.463 209.162C157.871 209.229 137.285 209.162 116.693 209.162C91.0608 209.162 65.4305 209.162 39.8018 209.162C27.3806 209.162 16.9697 204.67 8.97338 195.034C4.3282 189.431 1.34944 182.637 0.37623 175.425C0.297614 174.863 0.129154 174.341 0 173.802V167.002ZM108.68 191.597C131.677 191.597 154.674 191.597 177.671 191.597C184.207 191.597 189.974 189.744 194.517 184.858C201.334 177.558 202.328 167.743 197.128 158.736C178.784 126.915 160.42 95.1078 142.036 63.3135C136.892 54.4131 131.928 45.3892 126.458 36.7022C122.028 29.6885 115.172 26.7685 106.923 27.5322C99.2407 28.2454 93.9117 32.4625 90.1157 39.0494C72.0341 70.4506 53.9152 101.828 35.7588 133.18C30.4073 142.451 24.8593 151.621 19.8504 161.072C16.1049 168.147 16.8574 175.385 21.2205 182.084C25.5837 188.784 32.193 191.591 40.0995 191.586C62.9692 191.578 85.8295 191.582 108.68 191.597Z" fill="black"/>
<path d="M120.169 84.4554C119.297 99.3923 118.429 114.328 117.564 129.26C117.446 131.31 117.564 133.393 117.204 135.404C116.882 137.348 115.868 139.111 114.349 140.368C112.831 141.624 110.909 142.29 108.939 142.243C104.884 142.181 101.414 139.492 100.948 135.404C100.319 129.85 100.117 124.24 99.7686 118.653C99.0611 107.259 98.4266 95.8658 97.6685 84.4722C97.034 74.926 105.53 68.1876 113.667 71.9724C118.934 74.4319 120.495 79.0197 120.169 84.4554Z" fill="black"/>
<path d="M108.815 172.263C107.35 172.232 105.905 171.912 104.563 171.321C103.222 170.731 102.01 169.883 100.996 168.824C99.9824 167.766 99.1867 166.518 98.6555 165.152C98.1243 163.786 97.8671 162.329 97.8986 160.864C97.93 159.399 98.2501 157.954 98.8403 156.613C99.4304 155.271 100.279 154.059 101.337 153.045C102.396 152.031 103.644 151.236 105.009 150.705C106.376 150.173 107.833 149.916 109.298 149.948C115.475 150.071 120.214 155.226 120.012 161.571C119.927 164.468 118.704 167.214 116.608 169.216C114.512 171.217 111.712 172.311 108.815 172.263Z" fill="black"/>
</svg>
