<svg width="25" height="33" viewBox="0 0 25 33" fill="none" xmlns="http://www.w3.org/2000/svg">
<path d="M12.1862 32.4264C11.6382 32.1731 11.4735 31.7391 11.4803 31.1505C11.5048 29.1983 11.4896 27.246 11.4896 25.2938V24.8961C9.80079 26.2176 7.94312 26.7183 5.87858 26.3316C4.41271 26.0571 3.18159 25.3377 2.16831 24.2417C0.154437 22.0657 -0.394418 18.2583 2.00619 15.3452C0.17217 13.7146 -0.517699 11.7286 0.412823 9.40654C1.27917 7.24743 3.02537 6.27469 5.35083 6.23669C5.40572 5.9783 5.45723 5.70134 5.52478 5.42945C5.86785 4.02641 6.62973 2.76097 7.70918 1.80127C8.78863 0.841577 10.1345 0.233059 11.5681 0.0565729C11.628 0.0433555 11.6866 0.0244118 11.7429 0H13.1361C13.5043 0.0785286 13.8801 0.131724 14.2398 0.238962C17.1631 1.11038 18.9081 3.04685 19.475 6.04839C19.4868 6.10918 19.5054 6.16914 19.5206 6.23247C21.9457 6.27806 23.7426 7.33018 24.554 9.64044C25.3469 11.8865 24.6326 13.7974 22.8652 15.3426C25.3554 18.3596 24.6917 22.3595 22.3983 24.5626C20.083 26.7875 16.3127 27.2199 13.3835 24.9003V25.2626C13.3835 27.2258 13.3683 29.189 13.3928 31.1514C13.3996 31.7424 13.2341 32.1739 12.6869 32.4272L12.1862 32.4264ZM13.3895 22.3469C13.5523 22.4398 13.7088 22.5434 13.8581 22.6568C14 22.78 14.1114 22.9371 14.244 23.0739C14.9819 23.8398 15.9518 24.3408 17.0035 24.4995C18.0551 24.6582 19.1297 24.4656 20.0607 23.9515C20.9917 23.4375 21.7272 22.6307 22.1532 21.6562C22.5792 20.6817 22.6719 19.594 22.4169 18.5615C22.1433 17.4798 21.5531 16.6067 20.6909 15.9042C20.1336 15.449 20.1725 14.6848 20.7593 14.3302C20.8709 14.271 20.9856 14.218 21.103 14.1715C23.2917 13.1582 23.61 10.191 21.6755 8.77578C20.8607 8.17879 19.9546 8.01583 18.9734 8.26914C18.2025 8.46926 17.6832 8.07071 17.6629 7.27529C17.6579 7.08531 17.652 6.89531 17.6393 6.70617C17.4704 4.11388 15.237 1.9649 12.6354 1.89989C9.62347 1.82389 7.27267 4.10713 7.21441 7.16637C7.1964 8.10477 6.73367 8.4642 5.82623 8.24466C3.58774 7.70424 1.55275 9.62355 1.98508 11.8815C2.19449 12.9741 2.82948 13.7493 3.85204 14.1909C4.26326 14.369 4.55035 14.63 4.57653 15.0961C4.59848 15.4777 4.38738 15.742 4.10451 15.9768C2.89111 16.985 2.28907 18.2887 2.32453 19.861C2.35336 20.827 2.67096 21.7622 3.23636 22.5459C3.80177 23.3297 4.58904 23.9261 5.49662 24.2582C6.40421 24.5902 7.39047 24.6427 8.32819 24.4089C9.2659 24.1751 10.1121 23.6657 10.7575 22.9464C10.9644 22.7192 11.2118 22.5293 11.4887 22.2793C11.4887 21.7347 11.4887 21.1124 11.4887 20.4909C11.4814 20.4116 11.4468 20.3373 11.3908 20.2806C10.2179 19.1103 9.03661 17.9484 7.87051 16.7722C7.72548 16.6214 7.62167 16.4359 7.56906 16.2335C7.52092 16.0367 7.54078 15.8295 7.62541 15.6455C7.71005 15.4616 7.85447 15.3116 8.03516 15.2202C8.21859 15.1229 8.42861 15.0878 8.63371 15.1201C8.8388 15.1523 9.02788 15.2503 9.17256 15.3992C9.87256 16.0874 10.5624 16.7857 11.2574 17.4781C11.319 17.5389 11.3891 17.5912 11.493 17.6808V10.2248C11.493 9.41245 11.493 8.59986 11.493 7.787C11.493 7.3952 11.6466 7.08953 11.9928 6.89869C12.6472 6.53898 13.3886 7.00931 13.3912 7.7929C13.3962 9.76625 13.3912 11.7396 13.3912 13.7138V14.0364C13.9029 13.6142 14.336 13.1683 14.7751 12.7275C15.0284 12.4742 15.3375 12.3552 15.698 12.4447C16.4419 12.6296 16.675 13.4976 16.1202 14.0651C15.2758 14.9255 14.4171 15.7657 13.5769 16.6261C13.4695 16.746 13.4068 16.8993 13.3996 17.0601C13.3827 17.9146 13.3912 18.77 13.3912 19.6245L13.3895 22.3469Z" fill="white"/>
</svg>
