<svg width="28" height="26" viewBox="0 0 28 26" fill="none" xmlns="http://www.w3.org/2000/svg">
<path d="M0 13.5512C0.0444803 13.366 0.0794802 13.1786 0.135627 12.997C0.54543 11.6743 1.42337 10.8321 2.74976 10.4449C2.80569 10.4277 2.8576 10.3995 2.90244 10.3619C2.94728 10.3243 2.98413 10.2782 3.01081 10.2261C3.99035 7.48144 5.73796 5.37604 8.25365 3.90989C8.28398 3.89047 8.31297 3.86903 8.34043 3.84572C8.34553 3.84135 8.34042 3.83041 8.34772 3.80708C6.67059 3.10998 5.75546 1.86307 5.63733 0.00947977H7.27727C7.32831 0.811584 7.65645 1.48535 8.33751 1.96005C8.88075 2.33777 9.49254 2.41798 10.1831 2.36985C9.70109 1.64067 9.41597 0.874294 9.41962 0H11.0311C11.0617 0.181567 11.0822 0.369697 11.1266 0.551264C11.3986 1.65598 12.3509 2.38954 13.5432 2.37787C14.9104 2.36402 16.2557 2.49673 17.5537 2.94153C21.1551 4.17605 23.63 6.57507 24.9498 10.1532C24.9699 10.2295 25.0105 10.2989 25.0674 10.3537C25.1242 10.4085 25.1951 10.4466 25.2721 10.4638C26.7524 10.9013 27.6536 11.8755 27.9504 13.3973C27.9639 13.4498 27.9804 13.5014 28 13.5519V14.4269C27.9808 14.4668 27.9652 14.5083 27.9533 14.5509C27.6617 16.0822 26.7611 17.0724 25.2641 17.5026C25.0745 17.5573 25.0052 17.658 24.9476 17.8213C23.1349 23.0058 17.9227 26.2587 12.4786 25.4646C7.86646 24.7923 4.73023 22.1753 3.05529 17.822C3.03239 17.742 2.98833 17.6696 2.92776 17.6125C2.86719 17.5554 2.79235 17.5157 2.71111 17.4975C1.39858 17.1249 0.5447 16.2791 0.140002 14.9782C0.0838551 14.7974 0.0466686 14.6136 0.000729898 14.4269L0 13.5512ZM11.3082 6.72309C11.314 6.81716 11.3177 6.87987 11.3221 6.94185C11.4234 8.26459 12.5682 9.35545 13.8932 9.39191C15.3989 9.43275 16.6502 8.27042 16.6823 6.80039C16.7166 5.25305 15.5448 4.0375 13.9982 4.0251C12.4613 4.00588 10.9429 4.36206 9.57494 5.06274C6.84997 6.45402 5.09847 8.64158 4.3248 11.6021C4.24824 11.8974 4.13011 11.9944 3.83333 11.9769C3.36551 11.9391 2.89888 12.0629 2.51132 12.3276C2.16651 12.5634 1.90389 12.9008 1.7601 13.293C1.61631 13.6852 1.59852 14.1124 1.70921 14.5152C1.94401 15.3596 2.6659 15.9181 3.60509 15.9837C4.21688 16.0268 4.21688 16.0268 4.37584 16.5977C5.83349 21.8187 11.1172 24.9775 16.3454 23.6504C20.1102 22.6944 22.5348 20.2633 23.6329 16.5285C23.7838 16.018 23.7787 16.018 24.2979 15.9896C24.4066 15.9845 24.5167 15.975 24.6246 15.9626C25.7184 15.8386 26.5292 14.7412 26.3316 13.6613C26.1384 12.6076 25.348 11.9754 24.174 11.9842C23.8611 11.9842 23.7496 11.893 23.6694 11.5904C22.8609 8.54192 21.0338 6.33006 18.1881 4.95482C18.1152 4.91836 18.0342 4.89284 17.9278 4.85127C18.8793 7.12925 17.9649 9.08055 16.7159 10.0832C16.0267 10.6387 15.1838 10.9695 14.3008 11.0309C13.4178 11.0923 12.5372 10.8814 11.7778 10.4266C10.4653 9.63327 9.48962 7.89271 9.71202 6.7282L11.3082 6.72309Z" fill="white"/>
<path d="M10.0409 18.5009L11.4519 17.6711C12.0585 18.584 12.8978 19.1119 13.9975 19.1112C15.0971 19.1105 15.9283 18.6008 16.5452 17.6689L17.9562 18.4994C17.0586 19.8965 15.8095 20.687 14.1644 20.7424C12.3962 20.7978 11.0384 20.0045 10.0409 18.5009Z" fill="white"/>
<path d="M11.9585 14.2986H10.3893C10.164 13.5577 9.83731 13.2486 9.2875 13.2515C8.7377 13.2544 8.40373 13.5716 8.20174 14.2964H6.59753C6.61285 13.3587 6.99421 12.6193 7.75257 12.1015C8.69613 11.4577 9.69512 11.4322 10.6846 12.0031C11.521 12.4851 12.0664 13.4957 11.9585 14.2986Z" fill="white"/>
<path d="M21.4076 14.2993H19.8034C19.57 13.549 19.2441 13.2442 18.6935 13.2515C18.143 13.2588 17.8061 13.5818 17.6158 14.2986H16.0116C16.0247 13.3682 16.4032 12.6353 17.1462 12.111C18.0446 11.4825 19.0166 11.4205 19.9813 11.9353C20.8971 12.4268 21.3602 13.2231 21.4076 14.2993Z" fill="white"/>
</svg>
