<svg width="28" height="28" viewBox="0 0 28 28" fill="none" xmlns="http://www.w3.org/2000/svg">
<path d="M0 19.1953C0.0459375 18.9926 0.0853105 18.7884 0.139269 18.5879C0.312854 17.936 0.644693 17.3371 1.10533 16.8442C1.56596 16.3514 2.14114 15.9799 2.77982 15.7627C3.4185 15.5455 4.10092 15.4893 4.76652 15.5992C5.43212 15.709 6.0603 15.9815 6.59531 16.3924C6.64636 16.431 6.69885 16.4653 6.76667 16.5142L16.5521 6.8075C16.0866 6.25936 15.766 5.60329 15.6195 4.89927C15.1586 2.65198 16.7213 0.398853 18.986 0.0539576C19.0562 0.039577 19.1256 0.0215674 19.1939 0H20.125C20.1724 0.0203227 20.2211 0.0373774 20.2708 0.0510426C21.9771 0.373334 23.0913 1.36792 23.5915 3.02531C23.7074 3.41031 23.722 3.8274 23.7861 4.24958C23.835 4.24958 23.9057 4.25906 23.9765 4.26052C25.8285 4.3101 27.3751 5.51979 27.8564 7.29823C27.9074 7.48927 27.9497 7.6825 27.9964 7.875V8.80469C27.9497 9.0074 27.9096 9.21229 27.8549 9.41354C27.6813 10.0653 27.3494 10.6641 26.8887 11.1568C26.428 11.6495 25.8527 12.0207 25.214 12.2376C24.5753 12.4545 23.8929 12.5102 23.2275 12.3999C22.5621 12.2897 21.9342 12.0167 21.3996 11.6054C21.3493 11.5675 21.296 11.5325 21.2304 11.4866L11.4479 21.191C11.911 21.7413 12.2306 22.3976 12.3783 23.1015C12.8392 25.3619 11.27 27.6092 8.98407 27.949C8.92317 27.9618 8.86323 27.9789 8.80469 28H7.875C7.82799 27.9787 7.77919 27.9616 7.72917 27.949C6.87314 27.8178 6.08099 27.4178 5.46718 26.8069C4.85338 26.196 4.4497 25.4057 4.31448 24.5503C4.27292 24.2856 4.26125 24.0158 4.23427 23.7387C4.15042 23.7387 4.08844 23.7387 4.02354 23.7387C3.13408 23.7244 2.27364 23.42 1.57304 22.8718C0.872443 22.3237 0.370026 21.5617 0.142188 20.7018C0.0911467 20.5107 0.0495817 20.3175 0.00291506 20.125L0 19.1953ZM21.2581 8.36864C21.3212 8.45899 21.3894 8.54565 21.4623 8.62823C21.8407 9.00958 22.2126 9.39896 22.6078 9.76281C22.9127 10.0496 23.3043 10.2268 23.721 10.2664C24.1376 10.306 24.5556 10.2058 24.9091 9.98156C25.2671 9.76044 25.5422 9.42723 25.6914 9.03371C25.8406 8.64019 25.8556 8.20841 25.7341 7.80547C25.6126 7.40253 25.3614 7.051 25.0196 6.80552C24.6777 6.56005 24.2644 6.43437 23.8438 6.44802C23.3758 6.46086 22.9281 6.64209 22.583 6.95844L21.0314 5.42719C21.0685 5.38198 21.1167 5.32656 21.1611 5.26896C21.3346 5.04564 21.4563 4.78664 21.5175 4.51062C21.5788 4.23459 21.5781 3.94842 21.5154 3.6727C21.4528 3.39699 21.3298 3.13861 21.1552 2.91616C20.9807 2.69372 20.759 2.51276 20.5061 2.38631C20.2532 2.25987 19.9754 2.19108 19.6928 2.18492C19.4101 2.17876 19.1296 2.23537 18.8714 2.35068C18.6132 2.46599 18.3839 2.63712 18.1998 2.85175C18.0157 3.06637 17.8816 3.31915 17.807 3.59188C17.6138 4.31375 17.7968 4.94521 18.3174 5.47458C18.7549 5.92083 19.2048 6.35323 19.6583 6.80094L6.78125 19.5956C6.70104 19.5227 6.63542 19.4615 6.57125 19.3987C6.17604 19.0079 5.79323 18.604 5.38417 18.2277C5.09445 17.9581 4.72701 17.7868 4.33423 17.7382C3.94144 17.6896 3.54335 17.7663 3.19667 17.9572C2.85767 18.1405 2.58138 18.4211 2.40345 18.763C2.22551 19.1048 2.15411 19.4921 2.19844 19.8749C2.24628 20.2667 2.41469 20.634 2.68039 20.926C2.94609 21.218 3.29594 21.4201 3.68156 21.5046C4.35312 21.6555 4.93865 21.4674 5.43156 21.0262L6.97448 22.5641C6.93292 22.6151 6.88115 22.6756 6.83302 22.7398C6.57867 23.0741 6.44156 23.483 6.44291 23.9031C6.44426 24.3232 6.58399 24.7311 6.84049 25.0638C7.09699 25.3965 7.45596 25.6354 7.86189 25.7436C8.26783 25.8518 8.69809 25.8232 9.08615 25.6623C10.3389 25.1453 10.667 23.5535 9.71542 22.5546C9.27792 22.0945 8.80906 21.6606 8.34312 21.2027L21.2581 8.36864Z" fill="white"/>
</svg>
