<svg width="33" height="34" viewBox="0 0 33 34" fill="none" xmlns="http://www.w3.org/2000/svg">
<g clip-path="url(#clip0_686:1343)">
<path d="M30.2155 1.18609C29.5333 0.941907 28.7912 0.941906 28.1091 1.18609L2.70107 10.2909C1.02665 10.89 0.140751 12.7742 0.722236 14.4993C1.01854 15.3783 1.66057 16.088 2.4908 16.4542L12.9103 21.0541L17.3757 31.7901C18.0794 33.4708 19.9724 34.2455 21.6037 33.5204C21.9725 33.3565 22.3083 33.1227 22.5937 32.8314C22.9374 32.4773 23.1991 32.0478 23.3592 31.575L32.1939 5.3948C32.7756 3.66969 31.8899 1.78538 30.2155 1.18609ZM21.3365 30.8487C21.1424 31.4236 20.5328 31.7277 19.9747 31.5279C19.6904 31.4261 19.4608 31.2055 19.3424 30.9203L14.9935 20.4665L30.0932 4.90922L21.3365 30.8487ZM13.4806 18.9077L3.33424 14.427C2.92469 14.2536 2.66597 13.8327 2.68897 13.3772C2.69473 12.9192 2.98319 12.516 3.40609 12.3749L28.5803 3.35047L13.4806 18.9077Z" fill="black"/>
</g>
<defs>
<clipPath id="clip0_686:1343">
<rect width="33" height="34" fill="white"/>
</clipPath>
</defs>
</svg>
