<svg width="26" height="32" viewBox="0 0 26 32" fill="none" xmlns="http://www.w3.org/2000/svg">
<path d="M4.80838 32.0001C4.44441 31.9205 4.07432 31.8625 3.71798 31.7551C1.50511 31.0886 0.117102 29.3148 0.020194 26.8937C-0.0805297 24.3802 0.182727 21.9042 1.09992 19.5506C1.69129 18.0322 2.54973 16.7182 3.98962 15.9149C4.8603 15.4259 5.83797 15.1815 6.82667 15.2054C7.14105 15.2117 7.47222 15.3772 7.75913 15.5402C8.21697 15.8019 8.64962 16.128 9.0983 16.4152C11.7074 18.0945 14.3161 18.0924 16.9242 16.4088C17.2867 16.1749 17.656 15.9499 17.9925 15.6842C18.6159 15.1966 19.3027 15.1354 20.0444 15.2491C22.0672 15.5593 23.4964 16.7142 24.4594 18.5572C25.3201 20.202 25.707 21.9893 25.8795 23.8298C25.9687 24.7771 26.0084 25.7287 25.9985 26.6805C25.9657 29.5169 24.0985 31.6278 21.3919 31.9388C21.3242 31.9525 21.2578 31.9724 21.1935 31.9985L4.80838 32.0001ZM13.0052 30.0911V30.0864C15.5835 30.0864 18.1627 30.1094 20.741 30.0784C22.8837 30.053 24.1992 28.6284 24.1817 26.3981C24.1801 25.5517 24.1368 24.7058 24.0519 23.864C23.8909 22.3528 23.5941 20.8805 22.889 19.5259C22.1619 18.1205 21.1081 17.2105 19.5209 17.1191C19.3728 17.1135 19.2261 17.1512 19.0974 17.228C18.7044 17.4667 18.3275 17.7379 17.9406 17.9908C15.0578 19.8759 12.0727 20.1145 9.00292 18.5404C8.28717 18.173 7.63399 17.6759 6.94877 17.244C6.84804 17.1803 6.72748 17.1024 6.61912 17.1071C5.63402 17.1533 4.74963 17.4762 4.04075 18.2207C3.45243 18.8379 3.0419 19.5784 2.74355 20.3834C1.98049 22.441 1.79354 24.599 1.8439 26.7743C1.87137 27.9674 2.36431 28.9386 3.37918 29.5638C4.05525 29.9798 4.80381 30.0919 5.57526 30.0919L13.0052 30.0911Z" fill="black"/>
<path d="M20.4851 7.6267C20.498 11.7992 17.1789 15.1635 13.0139 15.1996C8.90971 15.235 5.53743 11.843 5.51614 7.65512C5.50449 6.65531 5.68901 5.66307 6.05903 4.73578C6.42904 3.80849 6.97722 2.96453 7.67187 2.25269C8.36652 1.54085 9.19386 0.975257 10.1061 0.588599C11.0183 0.201942 11.9973 0.00189178 12.9864 1.33526e-05C13.9756 -0.00186508 14.9553 0.194467 15.8689 0.577657C16.7826 0.960847 17.612 1.5233 18.3093 2.23249C19.0066 2.94168 19.5579 3.78356 19.9314 4.70944C20.3048 5.63532 20.493 6.62684 20.4851 7.6267V7.6267ZM12.9995 13.3596C14.1197 13.3599 15.2148 13.0244 16.1464 12.3956C17.0779 11.7667 17.8041 10.8728 18.2331 9.82674C18.662 8.78071 18.7745 7.62959 18.5563 6.51895C18.338 5.40831 17.7989 4.38803 17.007 3.58713C16.2151 2.78623 15.206 2.24068 14.1074 2.01948C13.0088 1.79827 11.87 1.91134 10.835 2.34439C9.79992 2.77743 8.91515 3.51101 8.29256 4.45234C7.66996 5.39368 7.3375 6.5005 7.3372 7.63284C7.33489 8.38528 7.47975 9.13077 7.76345 9.82642C8.04715 10.5221 8.4641 11.1542 8.99031 11.6864C9.51652 12.2186 10.1416 12.6404 10.8297 12.9275C11.5177 13.2147 12.2551 13.3615 12.9995 13.3596Z" fill="black"/>
</svg>
