<svg width="581" height="581" viewBox="0 0 581 581" fill="none" xmlns="http://www.w3.org/2000/svg">
<g clip-path="url(#clip0)">
<path d="M437.852 404.047C428.597 391.582 423.496 376.572 423.629 361.048C423.631 360.814 423.633 360.58 423.632 360.346C423.632 302.883 363.239 256.299 288.74 256.298C214.241 256.298 153.848 302.883 153.848 360.346C153.848 360.602 153.85 360.858 153.852 361.115C153.997 376.628 148.891 391.627 139.65 404.087C129.255 418.106 123.164 435.508 123.333 454.34C123.738 499.325 160.45 536.179 205.434 536.746C216.275 536.883 226.646 534.945 236.177 531.305C270.106 518.345 307.423 518.345 341.353 531.305C350.883 534.945 361.254 536.883 372.095 536.746C417.088 536.179 453.804 499.311 454.198 454.317C454.364 435.476 448.261 418.067 437.852 404.047V404.047Z" fill="white"/>
<path d="M259.922 114.302C259.922 74.6438 234.429 42.4946 202.981 42.4946C171.533 42.4946 146.04 74.6438 146.04 114.302C146.04 153.96 171.533 186.109 202.981 186.109C234.429 186.109 259.922 153.96 259.922 114.302Z" fill="white"/>
<path d="M114.338 271.325C114.338 231.667 88.8443 199.518 57.3965 199.518C25.9486 199.518 0.455078 231.667 0.455078 271.325C0.455078 310.983 25.9486 343.132 57.3965 343.132C88.8443 343.132 114.338 310.983 114.338 271.325Z" fill="white"/>
<path d="M439.047 114.321C439.047 74.6628 413.554 42.5136 382.106 42.5136C350.658 42.5136 325.165 74.6628 325.165 114.321C325.165 153.979 350.658 186.128 382.106 186.128C413.554 186.128 439.047 153.979 439.047 114.321Z" fill="white"/>
<path d="M580.916 271.374C580.916 231.716 555.423 199.567 523.975 199.567C492.527 199.567 467.034 231.716 467.034 271.374C467.034 311.032 492.527 343.181 523.975 343.181C555.423 343.181 580.916 311.032 580.916 271.374Z" fill="white"/>
</g>
<defs>
<clipPath id="clip0">
<rect width="581" height="581" fill="white"/>
</clipPath>
</defs>
</svg>
