<svg xmlns="http://www.w3.org/2000/svg" width="512" height="512" viewBox="0 0 512 512">
  <defs>
    <style>
      .cls-1 {
        fill: #fff;
        fill-rule: evenodd;
      }
    </style>
  </defs>
  <path id="Forme_1" data-name="Forme 1" class="cls-1" d="M230.768,509.516C88.185,488.747,20.061,370.648,10.811,249.089c-6.822-89.648,35.7-165.216,74.02-208.751C99.156,24.062,114.211-.324,143.243,3.727c25.146,17.671,58.906,138.464,75.4,173.729,7.4,15.828,12.494,40.157,24.177,48.532,8.088,3.337,24.637,4.686,29.754-6.1C337.223,85.511,340.147,3.16,372.314.99c18.113-1.222,54.949,45.345,62.317,56.347C455.5,88.5,480.438,122.061,490.089,161.2c10.425,38.513,22.682,64.35-5.742,167.791-23.711,86.293-95.7,163.382-176.95,177.725C281.751,510.888,257.922,512.431,230.768,509.516Z"/>
</svg>
