<svg id="Calque_1" data-name="Calque 1" xmlns="http://www.w3.org/2000/svg" viewBox="0 0 1024 1024">
<defs><style>.cls-1{fill:#fefcfa;}.cls-2{fill:#f4821c;}</style></defs><title>Zoey_logo_v1</title>
<path class="cls-2" d="M1030.77,934.19a72.65,72.65,0,0,0-7-2.55c-22-5.59-33-21-37.55-42.14-3.79-17.79-2.56-35.82-1.74-53.75.43-9.43,5.58-16.59,14.67-20.28s17.56-2,24.64,4.39a17.5,17.5,0,0,0,11.62,4.55c21,1.09,41.93-.82,62.77-3.21,64.76-7.42,128.42-20.94,192-35,10-2.22,20-5.32,30.52-4.1,18.5,2.13,32.74,12.27,45.75,24.61,3,2.82,5.77,5.82,8.65,8.74a7.5,7.5,0,0,0,.8,1.66,139.83,139.83,0,0,1,23.89,40.71c12.59,33.47,11.36,65.24-10.59,95.14a557.75,557.75,0,0,1-53.57,63.19c-43.54,43.84-85.9,88.78-127.93,134.05q-92.26,99.39-184.91,198.43c-6.41,6.87-12.67,13.87-19,20.8,7.51-2,15.19-1.92,21.17-8,21.34-21.73,43.15-43,64.85-64.41q74.87-73.83,149.81-147.57c29.7-29.15,59-58.7,89.84-86.7,28.35-25.74,55.94-52.31,79.66-82.59,11.69-14.92,20.78-30.79,22.36-50.18,2.23-27.37-5.49-52.13-19.1-75.5-2.72-4.67-6.74-8.53-8.5-13.78,6.73,3.64,11.34,9.56,16.06,15.26,17.38,21,28.29,45,31.71,72.14,3.61,28.71-5.78,53.06-24.43,74.92-26.7,31.3-56.83,59-87.74,85.87-24.51,21.33-47.8,43.95-71.48,66.16-31.46,29.49-62.69,59.24-94,88.88q-57.33,54.24-114.65,108.51c-.8.75-2,1.32-1.94,3.12,9.91-2.43,19.71-5,29.55-7.24,39.3-9.12,78.78-17.08,119.4-17a153.79,153.79,0,0,1,37,4.82c22.43,5.62,34,20.83,38.45,42.48a35.26,35.26,0,0,0,5.23,13.26c8.17,12,10,25.94,10.27,40,.29,13-1.14,26-2.68,38.83-1.13,9.4-6.37,16.34-15.65,19.59-9.47,3.31-18,1.11-24.76-5.86-3.34-3.41-6.91-4.7-11.32-5.21-21.11-2.41-42.25-1.72-63.38-.71-55.81,2.67-111,10.61-166.26,18.57-11.54,1.67-23.14,3.1-34.52,5.54-22.16,4.74-40.71-2-57-16.64-2.16-1.93-5.41-3.16-5.72-6.74,2.59,0,4.07,2.05,5.94,3.27,13.43,8.79,28,12,43.78,9.06,6.35-1.17,12.67-2.54,19-3.64,18.95-3.27,37.87-6.73,56.89-9.6,29-4.38,58.07-8.86,87.27-12.09,31.89-3.53,63.85-6.24,96-5,7.72.31,15.5.36,21.93,7,6.6,6.81,15.63,7,24.23,3.46,9-3.7,13.64-11.12,14.48-20.53,1.23-13.65,2.63-27.34,1.71-41.09-.38-5.7-.83-11.41-3-16.83.4,12.34-.11,24.64-.51,36.93-.32,9.9-4.61,17.68-13.9,21.9s-18.14,2.64-25.56-4a17.39,17.39,0,0,0-11.6-4.54c-29.27-1.42-58.23,2.15-87.07,6.18-58.9,8.24-117.14,20.17-175,33.8-22.2,5.22-41,.41-58.46-13.12-11.46-8.86-20.53-19.85-29.17-31.28l.1.13c-.73-1.11-1.1-2.49-2.43-3.13-11.9-20.93-20.4-42.88-20.51-67.42-.1-21.84,8.74-40.17,21.36-57.37,22.55-30.73,48.7-58.23,75.73-84.9,32.73-32.3,63.42-66.5,94.76-100.11q56.7-60.84,113.29-121.78,20.93-22.5,41.82-45c1-1.06,1.82-2.25,3.14-3.9-11.73,1.51-22.7,3.14-33.72,4.31-32.51,3.43-65,6.08-97.4-1.33-9.6-2.19-19-5.22-27.11-11-1.94-1.37-4.52-2.27-5-5.11,8.1,1.6,16.14,3.78,24.32,4.67,26.28,2.88,52.5,1.2,78.66-2,23.58-2.92,46.91-7.35,70.19-12,5.29-1.07,11.56-.57,15.58-4.59,9.6-9.61,18.62-19.8,27.87-29.75a253.28,253.28,0,0,0-25.18,6c-40,11-80.14,21.37-121.25,27.41-23.61,3.48-47.27,5.72-71.18,3.61C1040.89,935.47,1036,933.57,1030.77,934.19Z" transform="translate(-622 -621.72)"/>
<path class="cls-1" d="M1403.86,840.7c1.76,5.25,5.78,9.11,8.5,13.78,13.61,23.37,21.33,48.13,19.1,75.5-1.58,19.39-10.67,35.26-22.36,50.18-23.72,30.28-51.31,56.85-79.66,82.59-30.83,28-60.14,57.55-89.84,86.7q-75,73.66-149.81,147.57c-21.7,21.39-43.51,42.68-64.85,64.41-6,6.09-13.66,6-21.17,8,6.32-6.93,12.58-13.93,19-20.8q92.45-99.21,184.91-198.43c42-45.27,84.39-90.21,127.93-134.05A557.75,557.75,0,0,0,1389.17,953c21.95-29.9,23.18-61.67,10.59-95.14a139.83,139.83,0,0,0-23.89-40.71,7.5,7.5,0,0,1-.8-1.66c2.32,0,4,1.41,5.67,2.73,8.1,6.33,15.08,13.79,21.75,21.57.3.59.5,1.33,1.44,1Z" transform="translate(-622 -621.72)"/>
<path class="cls-1" d="M883,1439.25c8.64,11.43,17.71,22.42,29.17,31.28,17.51,13.53,36.26,18.34,58.46,13.12,57.85-13.63,116.09-25.56,175-33.8,28.84-4,57.8-7.6,87.07-6.18a17.39,17.39,0,0,1,11.6,4.54c7.42,6.65,16.27,8.23,25.56,4s13.58-12,13.9-21.9c.4-12.29.91-24.59.51-36.93,2.13,5.42,2.58,11.13,3,16.83.92,13.75-.48,27.44-1.71,41.09-.84,9.41-5.48,16.83-14.48,20.53-8.6,3.54-17.63,3.35-24.23-3.46-6.43-6.65-14.21-6.7-21.93-7-32.12-1.28-64.08,1.43-96,5-29.2,3.23-58.23,7.71-87.27,12.09-19,2.87-37.94,6.33-56.89,9.6-6.36,1.1-12.68,2.47-19,3.64-15.82,2.93-30.35-.27-43.78-9.06-1.87-1.22-3.35-3.3-5.94-3.27l0,0c-.12-1.24-.69-1.76-1.93-1.2l0,.06c.31-1-.23-1.17-1-1l0,0c.14-.91-.44-1.24-1.16-1.45-10.88-10.22-20.71-21.3-28.18-34.31A13.07,13.07,0,0,1,883,1439.25Z" transform="translate(-622 -621.72)"/>
<path class="cls-1" d="M1030.77,934.19c5.2-.62,10.12,1.28,15.22,1.73,23.91,2.11,47.57-.13,71.18-3.61,41.11-6,81.24-16.45,121.25-27.41a253.28,253.28,0,0,1,25.18-6c-9.25,10-18.27,20.14-27.87,29.75-4,4-10.29,3.52-15.58,4.59-23.28,4.68-46.61,9.11-70.19,12-26.16,3.25-52.38,4.93-78.66,2-8.18-.89-16.22-3.07-24.32-4.67l0,0c-.15-1.14-1-1.23-1.85-1.15C1040.29,939.22,1035.17,937.41,1030.77,934.19Z" transform="translate(-622 -621.72)"/>
<path class="cls-1" d="M880.64,1436.25c1.33.64,1.7,2,2.43,3.13C881.39,1439,881.73,1437.08,880.64,1436.25Z" transform="translate(-622 -621.72)"/>
<path class="cls-2" d="M1045.17,941.5c.9-.08,1.7,0,1.85,1.15C1045.93,943,1045.61,942.17,1045.17,941.5Z" transform="translate(-622 -621.72)"/>
<path class="cls-2" d="M914.08,1478.15c1.24-.56,1.81,0,1.93,1.2C914.5,1480.35,914.4,1479.07,914.08,1478.15Z" transform="translate(-622 -621.72)"/>
<path class="cls-2" d="M1403.93,840.73c-.94.36-1.14-.38-1.44-1C1403.3,839.6,1403.88,839.77,1403.93,840.73Z" transform="translate(-622 -621.72)"/>
<path class="cls-2" d="M912,1475.78c.72.21,1.3.54,1.16,1.45A1.18,1.18,0,0,1,912,1475.78Z" transform="translate(-622 -621.72)"/>
<path class="cls-2" d="M913.08,1477.18c.82-.14,1.36,0,1,1C913.39,1478.27,913.05,1477.91,913.08,1477.18Z" transform="translate(-622 -621.72)"/></svg>