<svg width="612" height="612" viewBox="0 0 612 612" fill="none" xmlns="http://www.w3.org/2000/svg">
<rect width="612" height="612" rx="128" fill="url(#paint0_linear)"/>
<path d="M237.166 207.014C237.166 207.014 248.153 170.6 220.57 151.524C217.727 149.557 176.431 197.143 179.899 241.405C179.899 241.411 214.623 214.821 237.166 207.014Z" fill="white"/>
<path d="M432.104 241.411C435.572 197.149 394.276 149.563 391.433 151.53C363.85 170.605 374.837 207.019 374.837 207.019C397.38 214.821 432.104 241.411 432.104 241.411Z" fill="white"/>
<path d="M480.92 242.454C484.367 245.943 487.655 249.544 490.729 253.201L470.819 269.947C467.168 265.609 463.162 261.352 458.905 257.3L454.71 253.305L454.874 247.511C455.191 236.401 454.178 214.144 443.841 189.869C431.988 162.024 411.478 140.157 382.825 124.775C380.002 127.761 376.437 132.007 372.913 137.499C362.807 153.24 357.684 171.378 357.684 191.406V204.411H254.307V191.406C254.307 170.957 249.211 152.712 239.156 137.171C235.648 131.746 232.103 127.598 229.301 124.703C200.575 140.09 180.029 161.978 168.156 189.864C157.824 214.144 156.805 236.4 157.123 247.505L157.287 253.299L153.091 257.294C148.834 261.345 144.824 265.602 141.177 269.941L121.269 253.201C124.348 249.543 127.636 245.942 131.084 242.454C131.473 212.53 141.358 137.309 225.82 97.3399L232.72 94.0771L238.933 98.5073C240.5 99.6285 274.81 124.708 279.737 178.4H332.287C337.27 125.789 371.293 99.834 372.85 98.6711L379.12 94L386.184 97.3452C470.65 137.309 480.532 212.53 480.92 242.454Z" fill="white"/>
<path d="M249.734 333.845C254.415 339.496 262.79 340.281 268.44 335.601C274.091 330.92 274.877 322.545 270.196 316.894C258.163 302.371 241.948 294.371 224.537 294.371C207.126 294.371 190.911 302.371 178.879 316.895C174.198 322.546 174.984 330.921 180.634 335.602C186.285 340.282 194.66 339.497 199.341 333.846C206.233 325.524 215.182 320.942 224.537 320.942C233.893 320.942 242.84 325.524 249.734 333.845V333.845Z" fill="white"/>
<path d="M427.863 335.601C433.514 330.92 434.299 322.545 429.618 316.894C417.586 302.371 401.371 294.371 383.96 294.371C366.55 294.371 350.334 302.371 338.302 316.895C333.622 322.546 334.407 330.921 340.058 335.602C345.708 340.282 354.084 339.497 358.764 333.846C365.657 325.524 374.605 320.942 383.96 320.942C393.316 320.942 402.264 325.524 409.157 333.845C413.838 339.496 422.213 340.281 427.863 335.601Z" fill="white"/>
<path d="M138 449.841C216.22 552.815 417.918 530.173 474 449.841" stroke="white" stroke-width="28" stroke-linecap="square"/>
<path d="M145.023 321.623C144.121 321.627 143.223 321.515 142.348 321.293L54.3144 299.284C50.4199 298.408 47.3045 295.49 46.175 291.662C45.0455 287.832 46.0782 283.693 48.8739 280.842C51.6695 277.992 55.7894 276.88 59.6398 277.936L147.674 299.944C153.059 301.294 156.596 306.443 155.921 311.955C155.248 317.467 150.575 321.611 145.023 321.623Z" fill="white"/>
<path d="M45.9849 376.643C40.3777 376.634 35.6746 372.41 35.0658 366.835C34.4569 361.261 38.1358 356.121 43.6082 354.9L142.646 332.891C146.513 331.956 150.585 333.183 153.293 336.098C156.001 339.014 156.924 343.165 155.706 346.954C154.488 350.743 151.32 353.579 147.421 354.372L48.3835 376.38C47.5958 376.554 46.791 376.642 45.9849 376.643V376.643Z" fill="white"/>
<path d="M90.002 431.664C85.1507 431.67 80.8678 428.499 79.459 423.856C78.0502 419.214 79.8474 414.196 83.884 411.504L149.909 367.487C153.18 365.306 157.366 365.035 160.892 366.776C164.417 368.518 166.746 372.008 166.999 375.931C167.253 379.855 165.394 383.616 162.123 385.797L96.098 429.814C94.2922 431.02 92.1716 431.663 90.002 431.664V431.664Z" fill="white"/>
<path d="M464.162 322.89C458.45 322.878 453.642 318.613 452.949 312.943C452.256 307.275 455.893 301.977 461.433 300.588L551.997 277.947C555.958 276.861 560.196 278.005 563.072 280.936C565.948 283.868 567.01 288.127 565.848 292.067C564.686 296.007 561.483 299.007 557.476 299.908L466.913 322.549C466.013 322.779 465.089 322.893 464.162 322.89V322.89Z" fill="white"/>
<path d="M566.045 379.491C565.214 379.49 564.387 379.399 563.577 379.219L461.694 356.578C457.683 355.763 454.423 352.845 453.171 348.947C451.918 345.049 452.868 340.779 455.653 337.78C458.44 334.78 462.628 333.519 466.606 334.48L568.49 357.121C574.119 358.378 577.905 363.666 577.278 369.4C576.651 375.136 571.813 379.481 566.045 379.491Z" fill="white"/>
<path d="M520.763 436.093C518.531 436.092 516.348 435.43 514.492 434.191L446.57 388.909C441.368 385.44 439.964 378.41 443.434 373.208C446.904 368.005 453.933 366.602 459.136 370.072L527.058 415.354C531.211 418.123 533.06 423.285 531.61 428.06C530.16 432.836 525.754 436.099 520.763 436.093V436.093Z" fill="white"/>
<path d="M338.012 388.503C336.487 405.715 322.843 419.359 305.63 420.884C288.418 419.359 274.774 405.715 273.249 388.503C273.249 375.089 287.748 372.312 305.63 372.312C323.513 372.312 338.012 375.09 338.012 388.503Z" fill="white"/>
<defs>
<linearGradient id="paint0_linear" x1="612" y1="0" x2="0" y2="612" gradientUnits="userSpaceOnUse">
<stop stop-color="#FFB800"/>
<stop offset="1" stop-color="#FF9900"/>
</linearGradient>
</defs>
</svg>
