<svg xmlns="http://www.w3.org/2000/svg" viewBox="0 0 2233 1277">
<defs><style>.cls-1{fill:#f3811c;}.cls-2{fill:#fefbfa;}</style></defs>
    <!-- <path d="M959.5,1177.91q-556,0-1111.91.09c-3.75,0-4.59-.84-4.59-4.59q.15-633.92,0-1267.82c0-3.75.84-4.59,4.59-4.59q1111.91.15,2223.82,0c3.75,0,4.59.84,4.59,4.59q-.15,633.92,0,1267.82c0,3.75-.84,4.59-4.59,4.59Q1515.45,1177.85,959.5,1177.91ZM1969,306c.09-1-.67-1.15-1.36-1.37-4.12-3.17-7.2-7.54-11.75-10.21-5.59-7.59-12.13-14.25-20.3-19-29.23-16.94-60.61-23.87-94.08-18.09-20.1,3.47-34.25,14.43-41,34.89-8.38,25.58-17.81,50.85-25.57,76.63-22.53,74.78-48.84,148.13-82,218.9-16,34.06-32.32,68-53.94,98.94-10.6,15.2-21.84,29.86-35.66,42.34-2.49,2.25-4.75,5-8.63,6,0-2-.07-3.65,0-5.29.75-15.34,3.57-30.4,6.67-45.39,9.39-45.49,22.41-90,36-134.37,22.32-72.65,47-144.51,73.07-215.89,6.54-17.9,3.13-33.29-10.07-46.75a66.12,66.12,0,0,0-11.93-9.83c-26.63-16.74-55.49-25-87-21.26-19.65,2.31-34.76,11.74-42.56,30.92-3.82,9.39-8.15,18.58-12,28q-26.74,65.1-48,132.19c-1.1,3.44-2.13,4.84-6,3.33a24.38,24.38,0,0,0-13.28-1.08c-12.42,2.28-20.31,10-25.6,20.93-18,37.33-37.22,74-58.83,109.45-22.69,37.19-47.31,73-77.92,104.22-18.06,18.44-37.63,35-61.64,45.23a73.48,73.48,0,0,1-44.61,4c-17.13-3.63-27.21-16.13-33.86-31.35-12.88-29.5-14.38-60.57-11.71-92.13.25-3,1.32-3.54,4.1-2.76a75,75,0,0,0,19.73,2.72c26.06.26,49.69-8.24,70.89-22.35,70-46.61,114.82-111.25,134.61-193,4.52-18.7,6.09-37.88,2.57-57-6.78-36.85-29-61.41-63.31-74.3-50.16-18.84-99.14-13.58-146.11,11.3-34.32,18.19-61.64,44.62-85.37,75-23.52,30.07-42.32,62.94-57.54,97.89-1,2.28-1.22,4.85-5.35,3.62-16.65-4.95-30.73,1.16-39.05,16.52-16.83,31.09-43.44,49.17-77,58.15-3.33.89-4,.23-3.2-3.27a436.19,436.19,0,0,0,11-80c1.33-33.5-1.2-66.59-12.5-98.49-15.36-43.37-44.08-73.26-89.08-85.53-37-10.08-73.52-7.72-109,7.27-36.81,15.54-66.73,40.3-91.24,71.22C562.86,421.17,530.44,517.73,529.06,625c0,1.31-.21,2.68.64,3.86-1,10.37-.53,20.75-.37,31.13,0,41.3,6.09,81.29,26.66,117.88,18.52,33,45.94,54.91,82.86,64,38.89,9.62,76.33,5.17,111.9-13.39,34.26-17.87,60.84-44.44,83.74-75,25.49-34.06,44.92-71.45,60.38-111,1.12-2.86,2.2-4.51,5.84-4.61,25.61-.7,50-6.79,73.32-17.32a207.88,207.88,0,0,0,32.6-18.75c0,11.7,0,22.78,0,33.86,0,2.06-.83,4.38,1.13,6.12-2.26,6.26-.29,12.68-.73,19-.72,16.91,1.37,33.58,5,50,12.63,57.63,45.23,98.73,100.84,120.34,34.92,13.57,71.38,16.88,108.47,15.25,17.2-.75,34.14-3.24,50.38-9.17,34.65-12.65,63.29-34.37,89.26-59.93,32.24-31.73,58.65-68,82.91-106,1.1-1.72,2.23-3.42,3.35-5.12a40.49,40.49,0,0,1,.34,10.7c-1.28,20-.77,39.89,3.42,59.63,7.47,35.13,28.42,57.41,62.91,67.06a155.5,155.5,0,0,0,26.48,4.8,297.78,297.78,0,0,0,49.41,1.14c20.25-1.36,36.84-11.69,52.06-24.3,5.87-4.86,11.4-10.15,17.08-15.24l-.07-.14c.91,1.73-.14,3.2-.65,4.72-4.77,14.18-9.28,28.45-14.41,42.5-13.79,37.71-29.36,74.61-51.94,108.11-11.23,16.67-24,32-41.13,43-12.31,7.92-25.64,11.64-40.35,9.91-11.54-1.35-16.87-6.73-17.9-18.21a49.51,49.51,0,0,0-1.27-8.87c-4.41-16.08-20.34-25.26-39.9-23.17-15.37,1.65-28.44,15.39-29.14,31.44a127.65,127.65,0,0,0,9.48,55.63c7.39,17.66,19.57,31.51,33.66,44l1.56,1.29-.13-.09c1.22,2.65,3.68,4.17,5.64,6.13,6.09,6.12,13.76,10.24,20.28,15.82a99.68,99.68,0,0,0,45,24.72c45.7,11.57,89.57,5.49,131.17-16.18,34.91-18.19,61.52-45.74,84.17-77.41,30.71-42.95,52.45-90.61,71.85-139.37,23.42-58.88,43-119.14,62.27-179.48,35.86-112.09,66.9-225.7,106.27-336.7,7-19.8-5.33-44.62-24.47-51.67ZM561.08,25.57c-7.45-7.56-15-15-23.41-21.53-19.53-15-40.92-21.83-65.61-16C450.4-6.85,428.59-2.41,406.83,2.27c-57.67,12.43-115.61,23.17-174.24,30-23.44,2.74-46.88,4.41-70.5,4-7.36-.14-13.67-2.1-19.06-6.79-15.87-13.81-40.56-2.35-44,15.18-1.43,7.21-1,14.47-1.61,21.65a154.55,154.55,0,0,0,4,50.35c5.41,21.26,16.68,37.57,38.44,44.85l14.18,4.7c5.27,4.69,12.34,6,18.21,9.55a11,11,0,0,0,4.08,4.9,89.65,89.65,0,0,0,18.93,10c19.68,7.35,40.33,9.2,61,10.3,17.88,1,35.7-1.15,53.51-2.71,12-1.05,23.92-2.45,35.84-4.07,6.21-.84,12.46-1.49,20-2.38-2.31,2.67-3.64,4.33-5.08,5.88q-12.9,13.94-25.85,27.84Q219.4,349.37,104.15,473.23c-26.57,28.54-55.3,55-81.56,83.81-19.08,21-37.76,42.27-53.13,66.15-13.65,21.21-20.83,44.15-17.52,69.92a172.29,172.29,0,0,0,15.68,52.17A241.88,241.88,0,0,0-17.75,771c9.35,15.52,21.6,28.51,35.21,40.3.47,1.93.85,3.84,2.62,5.18,4.6,3.47,9.06,7.14,13.71,10.56,14,10.34,30,15.89,47.08,13.61,22-2.94,43.86-7.06,65.89-10,23.17-3.09,46.28-6.75,69.48-9.6,19.29-2.38,38.62-4.41,58-6.35,21.4-2.15,42.85-3.34,64.29-4.5,18.89-1,37.8-1.22,56.77.48,9.95.89,18.24,3.16,26,9.72,12.63,10.73,33.58,6.11,40.79-8.79,6-12.31,5.1-26,6-39.18a166.94,166.94,0,0,0,.18-24.2c-1-13.78-3.21-27-10.94-38.82-3.69-5.65-5.82-11.94-7.32-18.62-3.94-17.59-11.64-32.77-28.35-42-15.35-8.44-32.19-10.37-49.13-12-9.05-.85-18.12-.3-27.21-.09a404.38,404.38,0,0,0-50.31,4.6c-34.45,5.11-68.41,12.8-102.16,21.41-2.28.58-4.74,2.2-7.94.37,13.63-12.81,26.93-25.28,40.2-37.79S251.35,600.46,264.5,588L301,553.44q20.26-19.19,40.5-38.38,18.06-17.13,36.13-34.26c15.76-15,31.3-30.25,47.29-45,6.72-6.2,13.17-12.67,19.83-18.92,14-13.17,28.2-26.19,42.35-39.23,11.2-10.32,22.15-20.94,33.76-30.78,15.67-13.27,31-26.94,45.75-41.14,19.39-18.63,38.49-37.58,55.71-58.33,7.41-8.93,14.17-18.23,19.22-28.58,11.92-24.41,13-49.9,7-76.08-6.74-29.28-21.27-54.34-40.93-76.63-3.4-3.86-6.75-8.2-12.16-9.76-1-1.35-2.47-2.28-3.6-3.61A167.77,167.77,0,0,0,567.6,28.78,14.44,14.44,0,0,0,561.08,25.57Z" transform="translate(157 99)"/> -->
    <path class="cls-1" d="M1465.33,1058.89c-14.09-12.45-26.27-26.3-33.66-44a127.65,127.65,0,0,1-9.48-55.63c.7-16,13.77-29.79,29.14-31.44,19.56-2.09,35.49,7.09,39.9,23.17a49.51,49.51,0,0,1,1.27,8.87c1,11.48,6.36,16.86,17.9,18.21,14.71,1.73,28-2,40.35-9.91,17.17-11,29.9-26.37,41.13-43,22.58-33.5,38.15-70.4,51.94-108.11,5.13-14,9.64-28.32,14.41-42.5.51-1.52,1.56-3,.65-4.71l.63.17c0-.21,0-.42-.08-.63l-.48.59c-5.68,5.09-11.21,10.38-17.08,15.24-15.22,12.61-31.81,22.94-52.06,24.3a297.78,297.78,0,0,1-49.41-1.14,155.5,155.5,0,0,1-26.48-4.8c-34.49-9.65-55.44-31.93-62.91-67.06-4.19-19.74-4.7-39.62-3.42-59.63a40.49,40.49,0,0,0-.34-10.7c-1.12,1.7-2.25,3.4-3.35,5.12-24.26,38-50.67,74.29-82.91,106-26,25.56-54.61,47.28-89.26,59.93-16.24,5.93-33.18,8.42-50.38,9.17-37.09,1.63-73.55-1.68-108.47-15.25-55.61-21.61-88.21-62.71-100.84-120.34-3.6-16.45-5.69-33.12-5-50,1.34,8.71,2.35,17.48,4.07,26.1,12.45,62.12,47.42,105.3,107.73,126.61,34.28,12.11,69.86,14.87,105.91,12.8,18.89-1.09,37.28-4.56,54.83-12,29.11-12.32,54.05-30.73,76.73-52.38,37.27-35.59,66.92-77.16,93.93-120.75a12,12,0,0,0,1.62-4.13c1.34-7.85,2.55-15.73,3.85-23.89-1.93,1.18-2.54,3-3.47,4.51-9.2,15.07-18.78,29.89-29,44.32-26.59,37.73-55.68,73.22-92.49,101.62-21.77,16.8-45.07,31-72.18,37.35-38.31,9-76.74,7.33-115-.71-32.54-6.85-61.94-20.35-86-43.85-32.17-31.39-45.92-70.9-49.87-114.63-2-1.74-1.11-4.06-1.13-6.12-.09-11.08,0-22.16,0-33.86A207.88,207.88,0,0,1,974,620.56c-23.32,10.53-47.71,16.62-73.32,17.32-3.64.1-4.72,1.75-5.84,4.61-15.46,39.54-34.89,76.93-60.38,111-22.9,30.58-49.48,57.15-83.74,75-35.57,18.56-73,23-111.9,13.39-36.92-9.12-64.34-31.06-82.86-64-20.57-36.59-26.66-76.58-26.66-117.86a33.42,33.42,0,0,1,.7,3.91,243.14,243.14,0,0,0,11.12,60.21c10.53,32.33,27.26,60.69,56.39,79.48,41.94,27.07,87.09,29.85,133.51,13.56,35.7-12.53,63.71-36.26,88.08-64.48,33-38.23,56.8-81.92,75.16-128.72,1.66-4.23,3.64-5.92,8.48-6.13,37.9-1.67,72.27-13.87,103.28-35.65,1.51-1,2.81-2.08,3.06-4.23.72-6.41,1.71-12.79,2.59-19.23-1.91,0-2.86,1.29-4,2.14q-48.18,34.56-107.41,37c-3.51.14-4.39,1.87-5.4,4.47a491,491,0,0,1-39.94,80.89c-22,35.54-47.9,67.67-82.46,92-36.17,25.44-76,36.32-120,29.37-50.12-7.92-84-36.78-104.32-82.56-11.12-25.1-15.9-51.72-18.16-78.89-.26-3.09,0-6.09-2.25-8.83a4.83,4.83,0,0,1,.11-6.07c.58-.71,1.47-.3,1.89.6-.85-1.18-.65-2.55-.64-3.86,1.38-107.26,33.8-203.82,100.59-288.11,24.51-30.92,54.43-55.68,91.24-71.22,35.5-15,72-17.35,109-7.27,45,12.27,73.72,42.16,89.08,85.53,11.3,31.9,13.83,65,12.5,98.49a436.19,436.19,0,0,1-11,80c-.8,3.5-.13,4.16,3.2,3.27,33.53-9,60.14-27.06,77-58.15,8.32-15.36,22.4-21.47,39.05-16.52,4.13,1.23,4.36-1.34,5.35-3.62,15.22-35,34-67.82,57.54-97.89,23.73-30.34,51.05-56.77,85.37-75,47-24.88,96-30.14,146.11-11.3,34.32,12.89,56.53,37.45,63.31,74.3,3.52,19.14,1.95,38.32-2.57,57-19.79,81.74-64.57,146.38-134.61,193-21.2,14.11-44.83,22.61-70.89,22.35a75,75,0,0,1-19.73-2.72c-2.78-.78-3.85-.19-4.1,2.76-2.67,31.56-1.17,62.63,11.71,92.13,6.65,15.22,16.73,27.72,33.86,31.35a73.48,73.48,0,0,0,44.61-4c24-10.24,43.58-26.79,61.64-45.23,30.61-31.25,55.23-67,77.92-104.22,21.61-35.41,40.8-72.12,58.83-109.45,5.29-10.95,13.18-18.65,25.6-20.93a24.38,24.38,0,0,1,13.28,1.08c3.92,1.51,5,.11,6-3.33q21.39-67,48-132.19c3.85-9.38,8.18-18.57,12-28,7.8-19.18,22.91-28.61,42.56-30.92,31.5-3.7,60.36,4.52,87,21.26a66.12,66.12,0,0,1,11.93,9.83c13.2,13.46,16.61,28.85,10.07,46.75-26.08,71.38-50.75,143.24-73.07,215.89-13.63,44.35-26.65,88.88-36,134.37-3.1,15-5.92,30.05-6.67,45.39-.09,1.64,0,3.27,0,5.29,3.88-1,6.14-3.77,8.63-6,13.82-12.48,25.06-27.14,35.66-42.34,21.62-31,38-64.88,53.94-98.94,33.16-70.77,59.47-144.12,82-218.9,7.76-25.78,17.19-51.05,25.57-76.63,6.7-20.46,20.85-31.42,41-34.89,33.47-5.78,64.85,1.15,94.08,18.09,8.17,4.74,14.71,11.4,20.3,19a20,20,0,0,0,1,2.78c5.65,10.46,6.1,21.13,1.93,32.24-12.14,32.4-22.31,65.46-32.86,98.4-30.82,96.27-58,193.68-90.11,289.55-21.09,62.92-42.25,125.81-70.91,185.84-17.27,36.16-36.86,70.89-62.91,101.59-42.84,50.48-95.8,79.49-163.6,77.26-24.34-.8-46.92-7-67.46-20.28-1.25-.8-2.2-2.67-4.22-1.74l.13.09C1467.17,1058.79,1466.21,1058.9,1465.33,1058.89ZM674,674.77c0,4.17-.22,8.34,0,12.49.58,9.15,1.65,18.26,5.33,26.79,3.46,8,7.19,9.61,15.44,6.8a42.7,42.7,0,0,0,12.85-7.54c11.17-9,19.93-20.07,27.93-31.79,23.86-35,40.93-73.4,56.81-112.44C794.78,563.2,795,559,790,554.85c-1.86-1.57-3.15-3.86-4.56-5.92-16.62-24.32-21.45-51.35-17.27-80,4.78-32.74,18.37-61,44.75-82.07,3.4-2.72,1.89-4.13-.85-5.09a17.94,17.94,0,0,0-13.14.59c-7.5,3.11-13.76,8-19.58,13.6C768.77,406,760,417.53,752.18,429.76c-27.37,42.84-46,89.51-60.12,138.11C682,602.79,674.38,638.2,674,674.77Zm635.63-309.62c-4.86.67-8.81,2.77-12.65,5.07a102.36,102.36,0,0,0-16,12c-33.71,30.53-58.74,67.35-78.32,108.12-4.3,8.95-8.61,17.88-12.14,27.31,1.77.74,3,0,4.19-.34a71.42,71.42,0,0,0,22.77-12.22c41.35-32.6,70-74.37,88.62-123.32A48.86,48.86,0,0,0,1309.62,365.15Z" transform="translate(157 99)"/>
    <path class="cls-1" d="M-17.75,771a241.88,241.88,0,0,1-14.63-25.69,172.29,172.29,0,0,1-15.68-52.17c-3.31-25.77,3.87-48.71,17.52-69.92C-15.17,599.31,3.51,578,22.59,557c26.26-28.83,55-55.27,81.56-83.81Q219.44,349.42,334.61,225.48q12.93-13.9,25.85-27.84c1.44-1.55,2.77-3.21,5.08-5.88-7.51.89-13.76,1.54-20,2.38-11.92,1.62-23.85,3-35.84,4.07-17.81,1.56-35.63,3.66-53.51,2.71-20.67-1.1-41.32-2.95-61-10.3a89.65,89.65,0,0,1-18.93-10,10.9,10.9,0,0,1-4.06-4.89c11.54,2.7,23.05,5.32,34.87,6.34,37.64,3.22,74.89-.61,112-6.53,22.34-3.57,44.56-7.89,66.85-11.8a21.09,21.09,0,0,0,12.45-6.71c9.21-10.09,18.62-20,27.93-30,.49-.53,1.39-1,.45-2.43-5.65,1.29-11.51,2.43-17.26,4C357.15,142.8,304.84,157.06,251,164.49c-25.95,3.58-51.94,6-78.18,3.73-6.29-.53-12.36-3-18.79-2l-14.18-4.7c-21.76-7.28-33-23.59-38.44-44.85a154.55,154.55,0,0,1-4-50.35c.56-7.18.18-14.44,1.61-21.65,3.49-17.53,28.18-29,44.05-15.18,5.39,4.69,11.7,6.65,19.06,6.79,23.62.46,47.06-1.21,70.5-4,58.63-6.86,116.57-17.6,174.24-30C428.59-2.41,450.4-6.85,472.06-12c24.69-5.83,46.08,1,65.61,16,8.46,6.48,16,14,23.41,21.53.31,1.92,1.72,3.18,2.85,4.59a168.63,168.63,0,0,1,28.3,51.89c13.28,39.45,8.6,75.92-17,109.44-15.89,20.8-32,41.43-50.3,60.15Q436.49,342,350.5,434.79,238.33,555.73,125.87,676.41c-1.2,1.28-2.8,2.33-3.25,4.26,16.79-2.58,18.37-3.43,29.88-14.95,15.55-15.55,31-31.17,46.77-46.54,112.28-109.66,222-221.93,337.13-328.67,26.42-24.5,51-50.82,72.05-80.18,13.86-19.31,20.64-40.84,19.48-64.71C626.51,116.43,617,90,600.9,65.79c-2-3-4.48-5.82-5.47-9.45,5.41,1.56,8.76,5.9,12.16,9.76,19.66,22.29,34.19,47.35,40.93,76.63,6,26.18,5,51.67-7,76.08-5,10.35-11.81,19.65-19.22,28.58-17.22,20.75-36.32,39.7-55.71,58.33-14.78,14.2-30.08,27.87-45.75,41.14-11.61,9.84-22.56,20.46-33.76,30.78-14.15,13-28.33,26.06-42.35,39.23-6.66,6.25-13.11,12.72-19.83,18.92-16,14.76-31.53,30-47.29,45q-18,17.18-36.13,34.26-20.25,19.19-40.5,38.38L264.5,588q-19.73,18.66-39.43,37.33c-13.27,12.51-26.57,25-40.2,37.79,3.2,1.83,5.66.21,7.94-.37,33.75-8.61,67.71-16.3,102.16-21.41a404.38,404.38,0,0,1,50.31-4.6c9.09-.21,18.16-.76,27.21.09,16.94,1.59,33.78,3.52,49.13,12,16.71,9.19,24.41,24.37,28.35,42,1.5,6.68,3.63,13,7.32,18.62,7.73,11.85,9.9,25,10.94,38.82a166.94,166.94,0,0,1-.18,24.2c-.93,13.19-.07,26.87-6,39.18-7.21,14.9-28.16,19.52-40.79,8.79-7.73-6.56-16-8.83-26-9.72-19-1.7-37.88-1.5-56.77-.48-21.44,1.16-42.89,2.35-64.29,4.5-19.34,1.94-38.67,4-58,6.35-23.2,2.85-46.31,6.51-69.48,9.6-22,2.93-43.89,7-65.89,10-17.1,2.28-33.08-3.27-47.08-13.61-4.65-3.42-9.11-7.09-13.71-10.56-1.77-1.34-2.15-3.25-2.6-5.17,2.43.37,4.2,1.89,6.12,3.23,15.17,10.54,31.94,14.86,50.2,11.83,25.28-4.21,50.44-9.19,75.73-13.28,48.16-7.78,96.4-15,145-19.67,30.71-3,61.47-4.37,92.32-3.19,8.89.34,17.1,2.36,23.46,9.32,2.63,2.88,6.27,4.38,10.08,5.2,15,3.26,31.39-7.13,33.67-22.41,3.08-20.61,4.47-41.4,1.87-62.22-.31-2.45-.27-5.21-3.05-8.38,0,14.59.24,27.92-.06,41.23-.28,12.11-5.39,21.5-17,26.54-11.1,4.83-21.08,2.84-30-5.12a21.07,21.07,0,0,0-13.72-5.23c-11.49-.34-23-.51-34.47.15-35.61,2-70.85,7.22-106,12.93q-83.22,13.5-165.15,33.49c-24.66,6-47.47,3.52-68.57-11.14-12-8.35-22-18.8-31.22-30C-14.52,773.07-15.21,770.82-17.75,771Z" transform="translate(157 99)"/>
    <path class="cls-1" d="M1968.94,306c19.14,7.05,31.5,31.87,24.47,51.67-39.37,111-70.41,224.61-106.27,336.7-19.3,60.34-38.85,120.6-62.27,179.48-19.4,48.76-41.14,96.42-71.85,139.37-22.65,31.67-49.26,59.22-84.17,77.41-41.6,21.67-85.47,27.75-131.17,16.18a99.68,99.68,0,0,1-45-24.72,2.38,2.38,0,0,1,2.34.35,103.76,103.76,0,0,0,26.9,10.44c50,10.86,96.94,2.61,140.35-24.33,34.25-21.25,59.82-51.13,81.56-84.52,27.55-42.33,48-88.21,66-135.16,30.92-80.44,56.76-162.61,81.89-245,26.59-87.14,52.11-174.61,82.6-260.51,2.49-7,3.38-14.15,1.51-21.56C1974.43,316.07,1971.08,311.29,1968.94,306Z" transform="translate(157 99)"/>
    <path class="cls-2" d="M595.43,56.34c1,3.63,3.45,6.41,5.47,9.45,16.1,24.2,25.61,50.64,27,79.83,1.16,23.87-5.62,45.4-19.48,64.71-21.06,29.36-45.63,55.68-72.05,80.18-115.12,106.74-224.85,219-337.13,328.67-15.73,15.37-31.22,31-46.77,46.54-11.51,11.52-13.09,12.37-29.88,14.95.45-1.93,2-3,3.25-4.26Q238.18,555.59,350.5,434.79q86-92.73,174.41-183.15c18.31-18.72,34.41-39.35,50.3-60.15,25.62-33.52,30.3-70,17-109.44a168.63,168.63,0,0,0-28.3-51.89c-1.13-1.41-2.54-2.67-2.85-4.59a14.44,14.44,0,0,1,6.52,3.21,167.77,167.77,0,0,1,24.23,23.95C593,54.06,594.39,55,595.43,56.34Z" transform="translate(157 99)"/>
    <path class="cls-2" d="M1968.94,306c2.14,5.34,5.49,10.12,6.93,15.82,1.87,7.41,1,14.55-1.51,21.56-30.49,85.9-56,173.37-82.6,260.51-25.13,82.37-51,164.54-81.89,245-18,46.95-38.49,92.83-66,135.16-21.74,33.39-47.31,63.27-81.56,84.52-43.41,26.94-90.31,35.19-140.35,24.33a103.76,103.76,0,0,1-26.9-10.44,2.38,2.38,0,0,0-2.34-.35c-6.52-5.58-14.19-9.7-20.28-15.82-2-2-4.42-3.48-5.64-6.13,2-.93,3,.94,4.22,1.74,20.54,13.26,43.12,19.48,67.46,20.28,67.8,2.23,120.76-26.78,163.6-77.26,26-30.7,45.64-65.43,62.91-101.59,28.66-60,49.82-122.92,70.91-185.84,32.13-95.87,59.29-193.28,90.11-289.55,10.55-32.94,20.72-66,32.86-98.4,4.17-11.11,3.72-21.78-1.93-32.24a20,20,0,0,1-1-2.78c4.55,2.67,7.63,7,11.75,10.21.12.79.4,1.42,1.36,1.37Z" transform="translate(157 99)"/>
    <path class="cls-2" d="M529.7,628.85c-.42-.9-1.31-1.31-1.89-.6a4.83,4.83,0,0,0-.11,6.07c2.22,2.74,2,5.74,2.25,8.83,2.26,27.17,7,53.79,18.16,78.89,20.28,45.78,54.2,74.64,104.32,82.56,44,6.95,83.85-3.93,120-29.37,34.56-24.32,60.43-56.45,82.46-92a491,491,0,0,0,39.94-80.89c1-2.6,1.89-4.33,5.4-4.47q59.24-2.34,107.41-37c1.18-.85,2.13-2.17,4-2.14-.88,6.44-1.87,12.82-2.59,19.23-.25,2.15-1.55,3.18-3.06,4.23-31,21.78-65.38,34-103.28,35.65-4.84.21-6.82,1.9-8.48,6.13-18.36,46.8-42.15,90.49-75.16,128.72-24.37,28.22-52.38,52-88.08,64.48-46.42,16.29-91.57,13.51-133.51-13.56-29.13-18.79-45.86-47.15-56.39-79.48A243.14,243.14,0,0,1,530,663.91a33.42,33.42,0,0,0-.7-3.91C529.17,649.6,528.67,639.22,529.7,628.85Z" transform="translate(157 99)"/>
    <path class="cls-2" d="M1007.8,641.79c4,43.73,17.7,83.24,49.87,114.63,24.09,23.5,53.49,37,86,43.85,38.21,8,76.64,9.67,115,.71,27.11-6.35,50.41-20.55,72.18-37.35,36.81-28.4,65.9-63.89,92.49-101.62,10.17-14.43,19.75-29.25,29-44.32.93-1.52,1.54-3.33,3.47-4.51-1.3,8.16-2.51,16-3.85,23.89a12,12,0,0,1-1.62,4.13c-27,43.59-56.66,85.16-93.93,120.75-22.68,21.65-47.62,40.06-76.73,52.38-17.55,7.43-35.94,10.9-54.83,12-36,2.07-71.63-.69-105.91-12.8-60.31-21.31-95.28-64.49-107.73-126.61-1.72-8.62-2.73-17.39-4.07-26.1C1007.51,654.47,1005.54,648.05,1007.8,641.79Z" transform="translate(157 99)"/>
    <path class="cls-2" d="M-17.75,771c2.54-.15,3.23,2.1,4.42,3.55,9.24,11.24,19.2,21.69,31.22,30C39,819.22,61.8,821.71,86.46,815.7q81.9-20,165.15-33.49c35.14-5.71,70.38-10.9,106-12.93,11.48-.66,23-.49,34.47-.15a21.07,21.07,0,0,1,13.72,5.23c9,8,18.95,9.95,30,5.12,11.57-5,16.68-14.43,17-26.54.3-13.31.06-26.64.06-41.23,2.78,3.17,2.74,5.93,3.05,8.38,2.6,20.82,1.21,41.61-1.87,62.22-2.28,15.28-18.63,25.67-33.67,22.41-3.81-.82-7.45-2.32-10.08-5.2-6.36-7-14.57-9-23.46-9.32-30.85-1.18-61.61.23-92.32,3.19-48.58,4.69-96.82,11.89-145,19.67-25.29,4.09-50.45,9.07-75.73,13.28-18.26,3-35-1.29-50.2-11.83-1.92-1.34-3.69-2.86-6.12-3.23C3.85,799.48-8.4,786.49-17.75,771Z" transform="translate(157 99)"/>
    <path class="cls-2" d="M154,166.19c6.43-1,12.5,1.5,18.79,2,26.24,2.23,52.23-.15,78.18-3.73,53.87-7.43,106.18-21.69,158.52-35.87,5.75-1.56,11.61-2.7,17.26-4,.94,1.43,0,1.9-.45,2.43-9.31,10-18.72,19.9-27.93,30a21.09,21.09,0,0,1-12.45,6.71c-22.29,3.91-44.51,8.23-66.85,11.8-37.08,5.92-74.33,9.75-112,6.53-11.82-1-23.33-3.64-34.87-6.34C166.34,172.17,159.27,170.88,154,166.19Z" transform="translate(157 99)"/>
    <path class="cls-1" d="M1969,306c-1,.05-1.24-.58-1.36-1.37C1968.32,304.88,1969.08,305,1969,306Z" transform="translate(157 99)"/>
    <path class="cls-2" d="M1465.33,1058.89c.88,0,1.84-.1,1.56,1.29Z" transform="translate(157 99)"/>
    <!-- <path d="M674,674.77c.39-36.57,8-72,18.07-106.9,14.07-48.6,32.75-95.27,60.12-138.11C760,417.53,768.77,406,779.32,396c5.82-5.55,12.08-10.49,19.58-13.6a17.94,17.94,0,0,1,13.14-.59c2.74,1,4.25,2.37.85,5.09-26.38,21.06-40,49.33-44.75,82.07-4.18,28.66.65,55.69,17.27,80,1.41,2.06,2.7,4.35,4.56,5.92,5,4.18,4.81,8.35,2.42,14.23-15.88,39-32.95,77.45-56.81,112.44-8,11.72-16.76,22.82-27.93,31.79a42.7,42.7,0,0,1-12.85,7.54c-8.25,2.81-12,1.19-15.44-6.8-3.68-8.53-4.75-17.64-5.33-26.79C673.77,683.11,674,678.94,674,674.77Z" transform="translate(157 99)"/> -->
    <!-- <path d="M1309.62,365.15a48.86,48.86,0,0,1-3.49,16.6c-18.62,48.95-47.27,90.72-88.62,123.32a71.42,71.42,0,0,1-22.77,12.22c-1.23.39-2.42,1.08-4.19.34,3.53-9.43,7.84-18.36,12.14-27.31,19.58-40.77,44.61-77.59,78.32-108.12a102.36,102.36,0,0,1,16-12C1300.81,367.92,1304.76,365.82,1309.62,365.15Z" transform="translate(157 99)"/> -->
    <!-- <path d="M1659,770l.48-.59c0,.21.06.42.08.63l-.63-.17Z" transform="translate(157 99)"/> -->
</svg>