<svg width="34" height="31" viewBox="0 0 34 31" fill="none" xmlns="http://www.w3.org/2000/svg">
<path d="M0.575195 26.5401V0.974609C0.801318 0.525763 1.1269 0.266486 1.66755 0.267336C9.07861 0.275837 16.49 0.277821 23.9016 0.273287C24.6207 0.273287 24.9931 0.650726 24.9939 1.3784C24.9939 3.09898 24.9939 4.81927 24.9939 6.53928V6.90396H25.3731C27.5603 6.90396 29.7485 6.91757 31.9349 6.89461C32.53 6.88866 32.9652 7.05273 33.2185 7.60529V26.5401C33.1938 26.5951 33.1737 26.6519 33.1582 26.7101C32.9824 27.8334 32.4111 28.8569 31.5473 29.596C30.6834 30.3352 29.5839 30.7413 28.447 30.7412C20.7469 30.7486 13.0471 30.7486 5.34758 30.7412C4.29259 30.7402 3.26763 30.3899 2.43261 29.7451C1.5976 29.1003 0.999491 28.1972 0.731614 27.1768C0.675508 26.9694 0.627051 26.7543 0.575195 26.5401ZM2.49809 2.19533C2.49809 2.28629 2.48874 2.34835 2.48874 2.41041C2.48874 10.2618 2.48874 18.1129 2.48874 25.9638C2.48531 26.3425 2.55757 26.7181 2.70129 27.0685C2.845 27.4189 3.05728 27.7371 3.32564 28.0044C3.59401 28.2716 3.91306 28.4826 4.26407 28.6248C4.61508 28.7671 4.99098 28.8378 5.36969 28.8328C11.5101 28.8396 17.6503 28.8396 23.7902 28.8328C23.8652 28.8269 23.9396 28.8156 24.0129 28.7988C23.2972 27.8093 23.071 26.728 23.0727 25.5566C23.0863 17.9058 23.0883 10.255 23.0787 2.60423V2.18938L2.49809 2.19533ZM24.9939 8.82601V10.5729C24.9939 15.6604 24.9939 20.7479 24.9939 25.8354C24.9939 26.6005 25.2048 27.2805 25.714 27.8552C26.3218 28.5404 27.0996 28.7903 28.0092 28.8464C30.0494 28.9705 31.356 27.4863 31.3339 25.5532C31.271 20.1058 31.3118 14.6568 31.3118 9.20855V8.82601H24.9939Z" fill="white"/>
<path d="M20.9138 17.576C20.9138 18.7095 20.9138 19.8455 20.9138 20.984C20.9138 21.704 20.5363 22.0764 19.8087 22.0764C17.5259 22.0764 15.2431 22.0764 12.9604 22.0764C12.2369 22.0764 11.8612 21.7015 11.8604 20.9798C11.8604 18.6862 11.8604 16.3927 11.8604 14.0992C11.8604 13.4012 12.2429 13.0238 12.9485 13.0229H19.8282C20.5304 13.0229 20.9112 13.4029 20.9121 14.1034C20.9155 15.2612 20.9138 16.4182 20.9138 17.576ZM18.9764 20.1518V14.9518H13.7909V20.1518H18.9764Z" fill="white"/>
<path d="M12.8159 6.77391C10.4583 6.77391 8.10134 6.77391 5.7449 6.77391C4.99767 6.77391 4.51482 6.10575 4.7911 5.45883C4.96111 5.05844 5.28585 4.86377 5.72619 4.86377C6.41646 4.86377 7.10645 4.86377 7.79616 4.86377C11.8103 4.86377 15.8238 4.86377 19.8368 4.86377C20.6172 4.86377 21.1051 5.49708 20.845 6.1644C20.692 6.55629 20.3451 6.77477 19.8589 6.77477C17.9054 6.77477 15.9519 6.77477 13.9984 6.77477L12.8159 6.77391Z" fill="white"/>
<path d="M12.8086 10.8552C10.451 10.8552 8.094 10.8552 5.73756 10.8552C4.97928 10.8552 4.50153 10.1513 4.81267 9.50188C5.00224 9.10659 5.33462 8.94167 5.76817 8.94337C7.31873 8.94337 8.86843 8.94337 10.419 8.94337C13.5717 8.94337 16.7249 8.94337 19.8788 8.94337C20.6438 8.94337 21.1267 9.62939 20.8266 10.2831C20.6379 10.6937 20.2936 10.8578 19.8473 10.8569C17.5011 10.8524 15.1548 10.8518 12.8086 10.8552Z" fill="white"/>
<path d="M12.847 24.2449C15.1932 24.2449 17.5397 24.2449 19.8865 24.2449C20.6329 24.2449 21.1141 24.9139 20.8361 25.5617C20.6661 25.9629 20.3396 26.1567 19.901 26.1567H17.8608C13.8688 26.1567 9.87649 26.1567 5.88392 26.1567C5.74628 26.1635 5.60832 26.1552 5.47247 26.1321C5.23755 26.0839 5.02942 25.9489 4.88962 25.7541C4.74982 25.5592 4.68862 25.3188 4.71823 25.0809C4.74785 24.8429 4.86609 24.6248 5.04939 24.4702C5.23268 24.3155 5.46753 24.2357 5.7071 24.2466C7.93716 24.2432 10.1669 24.2432 12.3964 24.2466L12.847 24.2449Z" fill="white"/>
<path d="M7.17962 16.4655C6.69167 16.4655 6.20371 16.4706 5.71662 16.4655C5.14876 16.4587 4.72797 16.0557 4.72032 15.5244C4.71267 14.9795 5.13941 14.5596 5.72172 14.5562C6.70668 14.55 7.6925 14.55 8.67917 14.5562C9.26743 14.5562 9.69247 14.9676 9.69077 15.5134C9.68907 16.0591 9.26573 16.4604 8.67067 16.4663C8.17592 16.4697 7.67777 16.4655 7.17962 16.4655Z" fill="white"/>
<path d="M7.20576 20.5467C6.71781 20.5467 6.23071 20.5467 5.74276 20.5467C5.1477 20.5416 4.72266 20.1446 4.72266 19.6006C4.72266 19.0565 5.1477 18.6374 5.75891 18.6357C6.72234 18.6323 7.68577 18.6323 8.64921 18.6357C9.26212 18.6357 9.69312 19.0395 9.68887 19.5963C9.68462 20.1531 9.25532 20.5433 8.63731 20.5467C8.16126 20.5484 7.68436 20.5467 7.20576 20.5467Z" fill="white"/>
</svg>
