<svg width="612" height="612" viewBox="0 0 612 612" fill="none" xmlns="http://www.w3.org/2000/svg">
<g clip-path="url(#clip0_1007_1725)">
<path d="M228.259 177.368C228.259 177.368 240.665 136.254 209.521 114.716C206.312 112.495 159.686 166.223 163.601 216.197C163.601 216.204 202.807 186.182 228.259 177.368Z" fill="#FF9900"/>
<path d="M448.358 216.204C452.273 166.229 405.648 112.502 402.438 114.723C371.294 136.26 383.7 177.374 383.7 177.374C409.152 186.182 448.358 216.204 448.358 216.204Z" fill="#FF9900"/>
<path d="M503.475 217.382C507.366 221.321 511.079 225.387 514.55 229.516L492.07 248.423C487.947 243.525 483.424 238.719 478.618 234.144L473.882 229.633L474.067 223.091C474.425 210.547 473.281 185.418 461.61 158.01C448.227 126.571 425.07 101.882 392.718 84.5141C389.531 87.8861 385.506 92.6801 381.527 98.8801C370.117 116.653 364.333 137.132 364.333 159.745V174.429H247.613V159.745C247.613 136.657 241.859 116.057 230.506 98.5101C226.545 92.3851 222.543 87.7011 219.379 84.4331C186.946 101.806 163.748 126.519 150.342 158.004C138.677 185.418 137.526 210.546 137.885 223.085L138.07 229.626L133.333 234.137C128.527 238.711 123.999 243.518 119.881 248.416L97.404 229.516C100.88 225.386 104.592 221.32 108.485 217.382C108.925 183.595 120.086 98.6661 215.449 53.5381L223.239 49.8541L230.255 54.8561C232.024 56.1221 270.762 84.4381 276.325 145.06H335.657C341.284 85.6591 379.698 56.3541 381.456 55.0411L388.535 49.7671L396.511 53.5441C491.879 98.6661 503.036 183.595 503.475 217.382Z" fill="#FFC800"/>
<path d="M242.449 320.569C247.734 326.949 257.19 327.836 263.57 322.551C269.95 317.266 270.837 307.81 265.552 301.43C251.966 285.032 233.658 276 214 276C194.342 276 176.034 285.032 162.449 301.431C157.164 307.811 158.051 317.267 164.431 322.552C170.811 327.837 180.267 326.95 185.552 320.57C193.334 311.174 203.437 306 214 306C224.563 306 234.665 311.174 242.449 320.569V320.569Z" fill="#FFB800"/>
<path d="M443.569 322.551C449.949 317.266 450.836 307.81 445.551 301.43C431.966 285.032 413.658 276 394 276C374.342 276 356.034 285.032 342.449 301.431C337.164 307.811 338.051 317.267 344.431 322.552C350.811 327.837 360.267 326.95 365.552 320.57C373.334 311.174 383.437 306 394 306C404.563 306 414.666 311.174 422.449 320.569C427.734 326.949 437.19 327.836 443.569 322.551Z" fill="#FFB800"/>
<path d="M116 451C204.463 567.405 432.574 541.81 496 451" stroke="#FFC800" stroke-width="28" stroke-linecap="square"/>
<path d="M124.223 306.769C123.205 306.773 122.191 306.647 121.203 306.395L21.8071 281.546C17.4099 280.557 13.8924 277.263 12.6171 272.94C11.3418 268.616 12.5078 263.942 15.6643 260.724C18.8207 257.506 23.4724 256.25 27.8198 257.443L127.216 282.292C133.297 283.816 137.29 289.63 136.528 295.853C135.768 302.076 130.491 306.755 124.223 306.769Z" fill="#FF9900"/>
<path d="M12.4027 368.89C6.07178 368.879 0.761701 364.11 0.0742537 357.817C-0.613194 351.523 3.54054 345.719 9.71926 344.34L121.539 319.491C125.906 318.436 130.504 319.82 133.561 323.112C136.619 326.404 137.661 331.09 136.286 335.369C134.911 339.647 131.334 342.849 126.931 343.744L15.111 368.593C14.2216 368.789 13.3128 368.889 12.4027 368.89V368.89Z" fill="#FF9900"/>
<path d="M62.1009 431.013C56.6235 431.02 51.7878 427.438 50.1971 422.196C48.6065 416.955 50.6356 411.29 55.1933 408.251L129.74 358.553C133.434 356.089 138.16 355.783 142.141 357.749C146.12 359.716 148.75 363.657 149.036 368.086C149.322 372.516 147.224 376.762 143.531 379.226L68.9837 428.924C66.9449 430.285 64.5506 431.011 62.1009 431.013V431.013Z" fill="#FF9900"/>
<path d="M484.553 308.199C478.104 308.186 472.676 303.371 471.893 296.969C471.11 290.569 475.217 284.587 481.472 283.019L583.725 257.456C588.197 256.229 592.982 257.521 596.229 260.831C599.476 264.14 600.676 268.95 599.364 273.398C598.052 277.846 594.435 281.234 589.911 282.252L487.659 307.815C486.643 308.074 485.6 308.203 484.553 308.199V308.199Z" fill="#FF9900"/>
<path d="M599.586 372.106C598.648 372.104 597.715 372.002 596.8 371.799L481.767 346.235C477.238 345.315 473.558 342.021 472.144 337.62C470.729 333.218 471.802 328.398 474.947 325.011C478.093 321.624 482.821 320.2 487.313 321.286L602.347 346.849C608.703 348.267 612.977 354.238 612.269 360.712C611.561 367.188 606.099 372.095 599.586 372.106Z" fill="#FF9900"/>
<path d="M548.46 436.013C545.94 436.012 543.475 435.265 541.379 433.866L464.69 382.74C458.818 378.822 457.233 370.885 461.15 365.011C465.067 359.138 473.004 357.554 478.878 361.471L555.568 412.597C560.256 415.723 562.344 421.552 560.707 426.943C559.069 432.336 554.095 436.02 548.46 436.013V436.013Z" fill="#FF9900"/>
<path d="M342.121 400.561C340.399 381.126 324.995 365.722 305.561 364C286.126 365.722 270.722 381.126 269 400.561C269 415.706 285.37 418.841 305.561 418.841C325.751 418.841 342.121 415.705 342.121 400.561Z" fill="#FFA31A"/>
</g>
<defs>
<clipPath id="clip0_1007_1725">
<rect width="612" height="612" fill="white"/>
</clipPath>
</defs>
</svg>
