<svg width="35" height="33" viewBox="0 0 35 33" fill="none" xmlns="http://www.w3.org/2000/svg">
<path d="M0 28.1695V0.758336C0.242448 0.277086 0.591534 -0.000909224 1.17122 2.23429e-06C9.11732 0.00911682 17.0637 0.0112442 25.0104 0.00638311C25.7815 0.00638311 26.1807 0.411071 26.1816 1.19128C26.1816 3.03607 26.1816 4.88056 26.1816 6.72474V7.11576H26.5881C28.9333 7.11576 31.2794 7.13034 33.6237 7.10573C34.2617 7.09935 34.7284 7.27526 35 7.86771V28.1695C34.9735 28.2284 34.9519 28.2894 34.9353 28.3518C34.7469 29.5562 34.1343 30.6535 33.2081 31.4461C32.2819 32.2386 31.103 32.674 29.884 32.674C21.628 32.6819 13.3723 32.6819 5.11693 32.674C3.98577 32.6728 2.88681 32.2972 1.99151 31.6059C1.09621 30.9145 0.454928 29.9463 0.167711 28.8522C0.107555 28.6298 0.055599 28.3992 0 28.1695ZM2.06172 2.06719C2.06172 2.16472 2.05169 2.23125 2.05169 2.29779C2.05169 10.716 2.05169 19.1339 2.05169 27.5516C2.04802 27.9576 2.12549 28.3603 2.27959 28.7361C2.43368 29.1118 2.66128 29.4529 2.94902 29.7395C3.23676 30.026 3.57884 30.2522 3.95519 30.4047C4.33154 30.5573 4.73458 30.6331 5.14063 30.6277C11.7244 30.635 18.3079 30.635 24.891 30.6277C24.9714 30.6214 25.0512 30.6092 25.1298 30.5913C24.3624 29.5303 24.1199 28.371 24.1217 27.115C24.1363 18.9118 24.1385 10.7087 24.1281 2.5056V2.06081L2.06172 2.06719ZM26.1816 9.17656V11.0496C26.1816 16.5044 26.1816 21.9592 26.1816 27.4139C26.1816 28.2342 26.4077 28.9634 26.9536 29.5796C27.6053 30.3142 28.4393 30.5822 29.4146 30.6423C31.6021 30.7754 33.003 29.184 32.9793 27.1113C32.9118 21.2707 32.9556 15.4283 32.9556 9.58672V9.17656H26.1816Z" fill="black"/>
<path d="M21.8066 18.558C21.8066 19.7733 21.8066 20.9913 21.8066 22.2121C21.8066 22.9841 21.402 23.3833 20.6217 23.3833C18.1742 23.3833 15.7266 23.3833 13.279 23.3833C12.5034 23.3833 12.1005 22.9813 12.0996 22.2075C12.0996 19.7484 12.0996 17.2893 12.0996 14.8302C12.0996 14.0819 12.5098 13.6772 13.2663 13.6763H20.6427C21.3956 13.6763 21.8039 14.0837 21.8048 14.8347C21.8085 16.0761 21.8066 17.3166 21.8066 18.558ZM19.7294 21.3198V15.7444H14.1695V21.3198H19.7294Z" fill="black"/>
<path d="M13.1241 6.97627C10.5963 6.97627 8.06914 6.97627 5.54258 6.97627C4.74141 6.97627 4.2237 6.25986 4.51992 5.56624C4.70221 5.13695 5.05039 4.92822 5.52253 4.92822C6.26263 4.92822 7.00243 4.92822 7.74193 4.92822C12.0458 4.92822 16.3491 4.92822 20.6518 4.92822C21.4885 4.92822 22.0117 5.60726 21.7328 6.32275C21.5688 6.74293 21.1969 6.97718 20.6755 6.97718C18.581 6.97718 16.4865 6.97718 14.3919 6.97718L13.1241 6.97627Z" fill="black"/>
<path d="M13.1159 11.3521C10.5882 11.3521 8.061 11.3521 5.53443 11.3521C4.72141 11.3521 4.20917 10.5974 4.54277 9.90109C4.74602 9.47726 5.10241 9.30044 5.56725 9.30226C7.22975 9.30226 8.89134 9.30226 10.5538 9.30226C13.9341 9.30226 17.315 9.30226 20.6965 9.30226C21.5169 9.30226 22.0346 10.0378 21.7128 10.7387C21.5105 11.179 21.1413 11.3549 20.6628 11.354C18.1472 11.3491 15.6316 11.3485 13.1159 11.3521Z" fill="black"/>
<path d="M13.157 25.7084C15.6726 25.7084 18.1886 25.7084 20.7048 25.7084C21.5051 25.7084 22.0209 26.4257 21.7229 27.1203C21.5406 27.5505 21.1906 27.7583 20.7203 27.7583H18.5328C14.2526 27.7583 9.97207 27.7583 5.69126 27.7583C5.54368 27.7655 5.39576 27.7567 5.25011 27.7319C4.99822 27.6802 4.77507 27.5355 4.62518 27.3266C4.47528 27.1177 4.40967 26.8599 4.44142 26.6048C4.47317 26.3496 4.59995 26.1158 4.79648 25.95C4.993 25.7842 5.24481 25.6986 5.50167 25.7103C7.89273 25.7066 10.2835 25.7066 12.6739 25.7103L13.157 25.7084Z" fill="black"/>
<path d="M7.08032 17.3676C6.55714 17.3676 6.03396 17.373 5.51169 17.3676C4.90284 17.3603 4.45167 16.9283 4.44347 16.3586C4.43526 15.7743 4.89281 15.3241 5.51716 15.3204C6.57324 15.3138 7.63023 15.3138 8.68813 15.3204C9.31886 15.3204 9.77458 15.7616 9.77276 16.3467C9.77094 16.9319 9.31703 17.3621 8.67901 17.3685C8.14854 17.3721 7.61443 17.3676 7.08032 17.3676Z" fill="black"/>
<path d="M7.10964 21.7436C6.58646 21.7436 6.06419 21.7436 5.54102 21.7436C4.90299 21.7381 4.44727 21.3125 4.44727 20.7291C4.44727 20.1458 4.90299 19.6965 5.55833 19.6946C6.59132 19.691 7.62431 19.691 8.65729 19.6946C9.31445 19.6946 9.77657 20.1276 9.77201 20.7246C9.76745 21.3216 9.30717 21.7399 8.64454 21.7436C8.13412 21.7454 7.62279 21.7436 7.10964 21.7436Z" fill="black"/>
</svg>
