<svg width="35" height="33" viewBox="0 0 35 33" fill="none" xmlns="http://www.w3.org/2000/svg">
<path d="M6.25117 21.7061C4.87038 23.0756 3.55207 24.3817 2.23167 25.6889C1.75058 26.1651 1.23512 26.2709 0.711339 26.0084C0.509142 25.9143 0.336438 25.7672 0.211709 25.5828C0.0869804 25.3984 0.0149201 25.1837 0.00323967 24.9617C-0.00404959 24.8839 0.00323967 24.806 0.00323967 24.7282C0.00323967 17.7642 0.00323967 10.8015 0.00323967 3.84017C0.00323967 1.85034 1.29864 0.346033 3.26362 0.03791C3.4966 0.0074765 3.73162 -0.00466435 3.96651 0.00159938C10.9052 0.00159938 17.8439 0.00159938 24.7825 0.00159938C27.1588 0.00159938 28.7437 1.5806 28.751 3.94392C28.751 4.68258 28.751 5.42125 28.751 6.22009C28.902 6.22009 29.0384 6.22009 29.1748 6.22009C30.085 6.24187 31.0044 6.18481 31.9021 6.30205C33.6078 6.5251 34.9219 8.04497 34.9938 9.75988C34.9938 9.85013 35 9.94143 35 10.0327C35 17.0099 35 23.9868 35 30.9633C35 31.5692 34.772 32.0205 34.2086 32.2715C33.7088 32.4936 33.2141 32.3566 32.733 31.8763C31.3168 30.4633 29.8975 29.0523 28.4897 27.631C28.4119 27.5473 28.3167 27.4817 28.2107 27.4387C28.1048 27.3956 27.9906 27.3763 27.8763 27.382C22.0053 27.3883 16.134 27.39 10.2623 27.3872C7.83815 27.3903 6.25117 25.8165 6.25117 23.4055C6.25117 22.8639 6.25117 22.3234 6.25117 21.7061ZM2.50241 21.8732C2.65341 21.7341 2.74817 21.6532 2.83668 21.5619C3.59164 20.8129 4.36326 20.0763 5.0901 19.2982C5.52537 18.8334 6.01167 18.6612 6.64479 18.6623C12.6845 18.6788 18.7241 18.6823 24.7638 18.6726C25.7812 18.6726 26.2529 18.2078 26.2529 17.2067V3.94392C26.2529 2.9656 25.7728 2.49148 24.795 2.49148H3.98005C2.96788 2.49148 2.50241 2.95108 2.50241 3.96155V12.9174V21.8732ZM28.7521 8.7162V9.18098C28.7521 11.8389 28.7521 14.4965 28.7521 17.1538C28.7521 19.5991 27.1818 21.1646 24.7294 21.1646H8.75035V23.3899C8.75035 24.445 9.20853 24.8994 10.2728 24.8994C16.3638 24.8994 22.4545 24.8977 28.5448 24.8942C28.7783 24.8863 29.0107 24.9285 29.2263 25.018C29.442 25.1075 29.6357 25.2422 29.7944 25.413C30.591 26.2325 31.4074 27.0335 32.2165 27.8406C32.2905 27.9143 32.3759 27.9775 32.5008 28.0834V27.7379C32.5008 21.8652 32.5008 15.9922 32.5008 10.1188C32.5008 10.0286 32.5008 9.93728 32.4956 9.84702C32.4373 9.24426 31.9489 8.74213 31.3418 8.72346C30.4973 8.69752 29.6528 8.7162 28.7521 8.7162Z" fill="black"/>
</svg>
