<svg width="32" height="28" viewBox="0 0 32 28" fill="none" xmlns="http://www.w3.org/2000/svg">
<path d="M5.71536 18.7729C4.45292 19.9573 3.2476 21.0869 2.04038 22.2174C1.60053 22.6293 1.12926 22.7208 0.650367 22.4938C0.465501 22.4124 0.307601 22.2851 0.193563 22.1257C0.0795249 21.9662 0.0136413 21.7805 0.00296198 21.5885C-0.00370248 21.5212 0.00296198 21.4539 0.00296198 21.3866C0.00296198 15.3636 0.00296198 9.34182 0.00296198 3.32123C0.00296198 1.60029 1.18733 0.299272 2.98388 0.0327871C3.19689 0.00646616 3.41177 -0.00403403 3.62653 0.00138324C9.97046 0.00138324 16.3144 0.00138324 22.6583 0.00138324C24.8309 0.00138324 26.28 1.36701 26.2867 3.41096C26.2867 4.0498 26.2867 4.68865 26.2867 5.37954C26.4247 5.37954 26.5494 5.37954 26.6741 5.37954C27.5063 5.39838 28.3469 5.34903 29.1676 5.45042C30.7271 5.64333 31.9286 6.95781 31.9943 8.44097C31.9943 8.51903 32 8.59799 32 8.67695C32 14.7113 32 20.7453 32 26.7791C32 27.3031 31.7915 27.6934 31.2764 27.9105C30.8194 28.1025 30.3672 27.9841 29.9274 27.5687C28.6325 26.3466 27.3349 25.1263 26.0477 23.8971C25.9766 23.8247 25.8896 23.7679 25.7927 23.7307C25.6958 23.6935 25.5914 23.6768 25.4869 23.6818C20.1192 23.6871 14.7511 23.6886 9.38272 23.6863C7.16631 23.6889 5.71536 22.3278 5.71536 20.2426C5.71536 19.7742 5.71536 19.3067 5.71536 18.7729ZM2.28792 18.9173C2.42597 18.7971 2.51261 18.7271 2.59353 18.6482C3.28378 18.0003 3.98926 17.3633 4.65381 16.6903C5.05177 16.2884 5.49638 16.1394 6.07524 16.1403C11.5972 16.1547 17.1192 16.1577 22.6412 16.1493C23.5714 16.1493 24.0026 15.7473 24.0026 14.8815V3.41096C24.0026 2.56484 23.5637 2.1548 22.6698 2.1548H3.6389C2.71349 2.1548 2.28792 2.55228 2.28792 3.42621V11.1718V18.9173ZM26.2876 7.53833V7.9403C26.2876 10.2391 26.2876 12.5375 26.2876 14.8357C26.2876 16.9505 24.8519 18.3045 22.6098 18.3045H8.00032V20.2291C8.00032 21.1416 8.41923 21.5346 9.39224 21.5346C14.9612 21.5346 20.5298 21.5331 26.0981 21.5301C26.3116 21.5233 26.5241 21.5598 26.7212 21.6372C26.9184 21.7146 27.0955 21.8311 27.2406 21.9788C27.969 22.6876 28.7154 23.3803 29.4551 24.0783C29.5227 24.1421 29.6008 24.1968 29.715 24.2883V23.9895C29.715 18.9105 29.715 13.8311 29.715 8.75142C29.715 8.67336 29.715 8.5944 29.7103 8.51634C29.657 7.99504 29.2105 7.56077 28.6554 7.54461C27.8833 7.52218 27.1111 7.53833 26.2876 7.53833Z" fill="white"/>
</svg>
