<svg width="387" height="386" viewBox="0 0 387 386" fill="none" xmlns="http://www.w3.org/2000/svg">
<path d="M60.814 386.981C53.8082 384.405 51.3962 379.405 51.4163 372.445C51.5564 321.307 51.583 270.168 51.4963 219.03V213.784C48.3377 214.94 45.1173 215.939 41.8484 216.777C26.836 219.864 11.7235 213.538 4.69774 201.397C-3.30886 187.637 -1.01702 172.987 11.083 161.282C36.8242 136.471 62.6055 111.697 88.4268 86.9616C114.782 61.6577 141.137 36.357 167.492 11.0594C176.269 2.63113 186.608 -1.45994 199.218 0.471942C206.624 1.66292 213.419 5.10355 218.574 10.2734C271.197 60.7801 323.794 111.309 376.364 161.86C393.779 178.669 389.165 204.248 367.227 214.456C358.049 218.727 348.491 218.737 339.013 214.93C338.013 214.551 337.132 214.153 335.431 213.453V218.652C335.431 269.922 335.457 321.193 335.511 372.464C335.511 379.424 333.169 384.424 326.113 387L60.814 386.981ZM193.553 78.6374C192.613 79.4329 191.912 79.9727 191.272 80.5883C153.407 116.928 115.576 153.293 77.778 189.683C76.3673 191.251 75.5844 193.239 75.5662 195.299C75.4461 250.225 75.4127 305.151 75.4661 360.077V363.95H131.933V359.499C131.933 342.86 131.793 296.754 131.933 280.124C132.193 255.777 149.587 235.502 174.788 231.013C183.065 229.545 191.752 229.839 200.249 229.848C231.835 229.914 254.874 251.847 254.944 281.706C254.944 297.956 254.944 343.684 254.944 359.944V363.988H311.401V359.253C311.401 304.819 311.424 250.389 311.471 195.961C311.529 194.605 311.278 193.253 310.736 191.997C310.194 190.74 309.373 189.609 308.328 188.679C272.739 154.644 237.203 120.552 201.72 86.4029C199.158 83.9691 196.526 81.4784 193.553 78.6374ZM23.9736 183.489C24.1938 189.01 25.8351 192.012 29.5382 193.755C31.1108 194.603 32.9097 195 34.7165 194.9C36.5233 194.799 38.2603 194.204 39.7166 193.187C41.5111 191.905 43.1853 190.479 44.7207 188.925C90.6186 144.877 136.506 100.826 182.384 56.7712C190.581 48.9016 196.246 48.8827 204.402 56.7049L341.515 188.338C343.007 189.768 344.308 191.624 346.119 192.467C348.611 193.632 351.534 194.721 354.206 194.588C358.119 194.399 361.072 192.126 362.303 188.31C363.824 183.575 361.882 180.099 358.449 176.804C306.56 127.029 254.691 77.2359 202.841 27.4236C196.026 20.8704 190.921 20.7946 184.176 27.31C168.943 41.9569 153.717 56.5818 138.498 71.1845C101.868 106.362 65.2576 141.556 28.6675 176.766C26.3756 179.02 24.9844 182.003 23.9736 183.489ZM230.944 364.149C230.944 345.36 231.355 297.511 230.814 279.158C230.394 264.802 219.745 254.536 204.533 252.964C198.837 252.522 193.12 252.383 187.408 252.548C168.283 252.595 155.952 264.262 155.912 282.302C155.912 298.54 155.912 344.256 155.912 360.493C155.912 361.696 156.022 362.908 156.093 364.149H230.944Z" fill="black"/>
</svg>
