<svg width="35" height="35" viewBox="0 0 35 35" fill="none" xmlns="http://www.w3.org/2000/svg">
<path d="M0 31.3135C0.0546875 31.1309 0.103906 30.947 0.164063 30.7665C0.369773 30.1399 0.764834 29.5925 1.29475 29.1999C1.82467 28.8073 2.46334 28.5888 3.12266 28.5746C4.13574 28.5548 5.14951 28.5684 6.1626 28.5671H6.58506C6.58506 28.3941 6.58027 28.2512 6.58506 28.1083C6.63906 26.7792 6.57344 25.4316 6.77373 24.1244C7.29873 20.6956 9.08769 18.0251 11.939 16.0567C12.9691 15.3463 14.0396 14.6825 15.0056 13.8928C17.2231 12.0803 18.3996 9.69624 18.6512 6.85068C18.6853 6.57979 18.6181 6.30586 18.4625 6.08152C18.2813 5.81966 18.1569 5.51678 17.9621 5.26791C17.5068 4.68745 17.5048 4.05093 17.6784 3.38774C18.1574 1.55815 19.3231 0.449419 21.1757 0.0615331C21.2283 0.045833 21.2793 0.0252318 21.3281 0L27.6172 0C27.8605 0.179813 28.1278 0.33433 28.3432 0.542858C29.1334 1.31134 29.9093 2.09486 30.6852 2.87906C30.8133 3.01594 30.9693 3.12374 31.1427 3.19521C31.316 3.26668 31.5027 3.30016 31.69 3.29339C32.3606 3.28176 33.0319 3.30911 33.7012 3.2845C34.3349 3.26194 34.7778 3.49508 35 4.10494V8.48062C34.9766 8.51844 34.9583 8.55911 34.9453 8.60164C34.7115 9.99228 33.9685 11.0267 32.7626 11.7419C32.0585 12.1598 31.3562 12.581 30.6558 13.0054C30.0836 13.352 29.6864 13.8422 29.5709 14.5061C29.5248 14.7559 29.5545 15.0138 29.6563 15.2465C30.7979 17.4897 30.8007 19.72 29.6447 21.9557C29.567 22.1048 29.5242 22.2696 29.5196 22.4377C29.5114 24.43 29.5196 26.423 29.5087 28.4153C29.5087 28.643 29.5771 28.7489 29.7862 28.8446C30.8581 29.3383 31.5267 30.1724 31.6552 31.3484C31.7406 32.125 31.6825 32.9168 31.7146 33.701C31.7406 34.3341 31.5096 34.7798 30.8984 35H2.80273C2.72822 34.9774 2.65439 34.9508 2.57852 34.9316C1.50391 34.6951 0.72666 34.0756 0.273438 33.0685C0.151074 32.7951 0.0875 32.4915 0 32.2023V31.3135ZM29.6591 32.9366C29.6591 32.59 29.6591 32.2727 29.6591 31.9555C29.6618 31.8642 29.6591 31.7729 29.6509 31.682C29.5825 31.0844 29.1519 30.6735 28.5448 30.6202C27.8141 30.5566 27.4647 30.1806 27.4641 29.4422C27.4641 26.9809 27.4559 24.5196 27.4736 22.0582C27.4806 21.766 27.5595 21.48 27.7033 21.2255C28.7116 19.4691 28.713 17.7297 27.7033 15.9747C27.5614 15.7314 27.4816 15.4569 27.4709 15.1754C27.4531 13.4586 28.1442 12.1152 29.6379 11.2195C30.3502 10.7922 31.0639 10.367 31.7748 9.9369C32.5609 9.46014 32.9529 8.76117 32.9506 7.83999C32.9506 7.22466 32.9506 6.60933 32.9506 5.994V5.34107C32.5015 5.34107 32.1036 5.33492 31.7064 5.34107C30.7296 5.35953 29.91 5.00879 29.2264 4.31552C28.5428 3.62225 27.8448 2.92555 27.1428 2.24254C27.0337 2.13612 26.8907 2.07129 26.7388 2.05931C25.1095 2.047 23.4805 2.04586 21.8518 2.05589C21.3507 2.05368 20.8641 2.22359 20.4732 2.5372C20.0824 2.85081 19.8111 3.28911 19.7046 3.77881C19.6704 3.95131 19.6977 4.13032 19.7818 4.28475C20.4477 5.42516 21.1326 6.55395 21.8128 7.68548C21.8627 7.76957 21.9215 7.84888 21.9926 7.95417C22.0862 7.83589 22.1648 7.74086 22.2387 7.64241C22.9291 6.7226 23.6191 5.80234 24.3086 4.88162C24.5677 4.5343 24.8985 4.34287 25.334 4.4126C26.142 4.54114 26.4687 5.40534 25.9595 6.09246C24.9225 7.49267 23.8731 8.88401 22.8259 10.2767C22.2229 11.078 21.432 11.0322 20.9118 10.1694C20.7293 9.86648 20.5454 9.56497 20.3383 9.22449C20.2925 9.35439 20.2699 9.41729 20.248 9.48293C19.5754 11.8109 18.3483 13.7998 16.4753 15.334C15.3945 16.2187 14.2058 16.9715 13.0573 17.7762C10.3852 19.653 8.8375 22.2039 8.68232 25.4726C8.56611 27.9059 8.64268 30.3481 8.63584 32.7882C8.64221 32.8402 8.65483 32.8911 8.67344 32.94H22.8662C22.56 31.6786 21.2509 30.6838 19.8399 30.6243C19.0682 30.5922 18.6929 30.2182 18.6628 29.462C18.6512 29.0281 18.5534 28.6008 18.3751 28.205C18.1968 27.8092 17.9417 27.4528 17.6244 27.1566C16.9586 26.516 16.1465 26.2568 15.2373 26.2069C14.6426 26.1741 14.2516 25.6969 14.2851 25.1287C14.3172 24.5859 14.767 24.1777 15.3385 24.1716C17.7939 24.1524 20.0416 25.9314 20.5687 28.3278C20.6206 28.5616 20.7259 28.6402 20.9426 28.7236C21.564 28.9643 22.1655 29.2549 22.7739 29.529C22.8721 29.5808 22.9674 29.6376 23.0597 29.6993V29.2344C23.0597 27.2398 23.0597 25.2456 23.0597 23.252C23.0555 23.0815 23.0704 22.9111 23.1041 22.744C23.1571 22.5258 23.2811 22.3315 23.4565 22.1914C23.6319 22.0514 23.8489 21.9735 24.0733 21.9702C24.2978 21.9668 24.517 22.0381 24.6965 22.1728C24.8761 22.3076 25.0058 22.4981 25.0653 22.7146C25.1009 22.8932 25.1149 23.0755 25.107 23.2574C25.107 26.345 25.107 29.4326 25.107 32.5202V32.9393L29.6591 32.9366ZM6.5625 32.9544V30.6182C5.44004 30.6182 4.33877 30.612 3.23818 30.6182C2.55459 30.6236 2.05762 31.1179 2.05146 31.7681C2.04531 32.4183 2.56006 32.9455 3.24912 32.9544C4.10225 32.9633 4.95811 32.9544 5.80986 32.9544H6.5625Z" fill="black"/>
</svg>
